<svg width="17" height="17" viewBox="0 0 17 17" fill="none" xmlns="http://www.w3.org/2000/svg">
<path d="M15.2306 14.0186L14.4715 4.45247C14.4244 3.83612 13.9029 3.35352 13.2849 3.35352H11.7853V5.57537C11.7853 5.85052 11.5626 6.07325 11.2874 6.07325C11.0126 6.07325 10.7895 5.85052 10.7895 5.57537V3.35352H6.20914V5.57537C6.20914 5.85052 5.98608 6.07325 5.71126 6.07325C5.4361 6.07325 5.21338 5.85052 5.21338 5.57537V3.35352H3.71379C3.09578 3.35352 2.57433 3.83612 2.52721 4.45114L1.76779 14.0199C1.70905 14.7863 1.97491 15.5491 2.497 16.1126C3.01911 16.6762 3.75928 16.9998 4.52767 16.9998H12.471C13.2394 16.9998 13.9796 16.6762 14.5017 16.1126C15.0238 15.549 15.2897 14.7863 15.2306 14.0186ZM10.7424 9.14706L8.16743 11.7221C8.07017 11.8193 7.94271 11.8681 7.81527 11.8681C7.68781 11.8681 7.56037 11.8193 7.46312 11.7221L6.25629 10.5152C6.06178 10.3207 6.06178 10.0057 6.25629 9.81122C6.45079 9.61672 6.76612 9.61672 6.96029 9.81122L7.81531 10.6659L10.0385 8.44276C10.2326 8.24859 10.548 8.24859 10.7425 8.44276C10.9369 8.63726 10.9369 8.95256 10.7424 9.14706Z" fill="black"/>
<path d="M8.50012 0C6.68819 0 5.21417 1.47435 5.21417 3.28628V3.35365H6.20994V3.28628C6.20994 2.02333 7.23721 0.995729 8.50016 0.995729C9.7631 0.995729 10.7904 2.02333 10.7904 3.28628V3.35365H11.7861V3.28628C11.7861 1.47435 10.3121 0 8.50012 0Z" fill="black"/>
</svg>
