<svg width="15" height="15" viewBox="0 0 15 15" fill="none" xmlns="http://www.w3.org/2000/svg">
<g clip-path="url(#clip0)">
<path d="M8.38733 6.61688C8.11115 6.99782 7.79292 7.33548 7.47078 7.67743C7.32556 7.83156 7.20733 8.00258 7.06788 8.16062C6.98127 8.25879 6.88877 8.38288 6.75498 8.41261C6.63038 8.44029 6.49758 8.52334 6.38808 8.58567C6.25955 8.65884 6.15155 8.75028 6.03087 8.8335C5.93044 8.90276 5.82854 8.94637 5.74566 9.03979C5.58948 9.21586 5.43625 9.39527 5.286 9.57283C5.21764 9.65363 5.10912 9.76185 5.06171 9.85666C4.96913 10.0418 4.86354 10.2353 4.77373 10.4299" stroke="white" stroke-linecap="round" stroke-linejoin="round"/>
<path d="M4.72389 10.5296C4.20199 11.1582 3.63457 11.7375 3.07908 12.3239C2.92253 12.4891 2.88409 12.7256 2.76618 12.9109C2.64285 13.1047 2.55468 13.287 2.36882 13.4315C2.28773 13.4946 2.17696 13.4638 2.08222 13.4758C1.93129 13.495 1.78744 13.5527 1.63364 13.545C1.54072 13.5404 1.44037 13.4487 1.41488 13.3595C1.39559 13.292 1.29444 13.0345 1.34012 12.9774C1.43799 12.8551 1.73206 12.3868 1.95762 12.4513C1.99401 12.4617 2.00758 12.5252 2.00746 12.5233C2.00497 12.4834 1.97764 12.4492 1.98392 12.4084C2.00561 12.2674 2.18287 12.1236 2.28159 12.0248C2.3975 11.9089 2.51379 11.8052 2.64434 11.7064C2.92186 11.4964 3.13082 11.2087 3.39752 10.9837C3.58944 10.8218 3.75118 10.5944 3.97486 10.4714C4.15079 10.3747 4.38541 10.5089 4.57159 10.38C4.65509 10.3222 5.14755 9.73497 5.14755 10.0256C5.14755 10.0614 5.14693 10.1913 5.14755 10.1807C5.15304 10.0874 5.25502 10.0079 5.31646 9.95221C5.50365 9.78269 5.70691 9.63025 5.87858 9.4441C6.00873 9.30297 6.43101 8.91531 6.27317 9.02459C5.95543 9.24456 5.5533 9.34951 5.23062 9.56732C4.87634 9.80646 4.53087 10.052 4.16177 10.2734C4.05955 10.3348 4.09484 10.3182 4.1507 10.2499C4.29805 10.0698 4.51114 9.96244 4.69481 9.82207C5.03193 9.56443 5.36236 9.29219 5.63629 8.96644C5.80009 8.77165 5.94202 8.54612 6.15825 8.40294C6.28645 8.31805 6.43852 8.26171 6.59299 8.26171C6.68897 8.26171 6.76731 8.21187 6.86713 8.21187C6.93672 8.21187 7.13667 8.24599 7.16618 8.18695" stroke="white" stroke-linecap="round" stroke-linejoin="round"/>
<path d="M7.73937 7.43931C7.8573 7.03364 8.13443 6.7002 8.39286 6.37323C8.48219 6.26022 8.57586 6.15019 8.66977 6.04095C8.68489 6.02336 8.74419 5.99388 8.721 5.99388C8.66461 5.99388 8.69154 5.93694 8.70715 5.90388C8.87689 5.54443 9.04049 5.18222 9.20973 4.82257" stroke="white" stroke-linecap="round" stroke-linejoin="round"/>
<path d="M8.88576 5.1216C8.88576 4.79912 8.97835 4.50398 9.22081 4.27428C9.30814 4.19154 9.42886 4.14154 9.52818 4.07491C9.56934 4.04729 9.71359 3.96801 9.72893 3.9143C9.73836 3.88132 9.6718 3.89843 9.65832 3.92538" stroke="white" stroke-linecap="round" stroke-linejoin="round"/>
<path d="M9.53371 4.32414C9.83622 3.81791 10.2924 3.432 10.7244 3.03931C10.9352 2.84771 11.1761 2.70669 11.3779 2.50488C11.6968 2.18598 11.9719 1.76891 12.3554 1.53295C12.4673 1.46409 12.646 1.60223 12.7375 1.65756C12.8522 1.7269 12.8981 1.78609 12.8981 1.91231C12.8981 2.0171 12.9216 2.14545 12.8621 2.23629C12.7051 2.47584 12.5334 2.73684 12.3194 2.92855C12.1406 3.08866 12.0006 3.30625 11.7932 3.43528C11.5752 3.57099 11.4017 3.75767 11.2034 3.9254C10.9961 4.10088 10.8092 4.27327 10.6496 4.49306C10.5658 4.60855 10.42 4.71316 10.381 4.85303C10.3703 4.89148 10.3123 5.18425 10.381 5.19639C10.4149 5.20237 10.4267 5.22615 10.4558 5.2407C10.5339 5.27973 10.7452 5.12198 10.7992 5.09117C11.1497 4.89085 11.46 4.67071 11.6576 4.31861C11.8565 3.96398 12.1326 3.66633 12.3941 3.35775C12.632 3.077 12.8613 2.76532 13.1667 2.55473C13.2326 2.50929 13.5779 2.40433 13.571 2.5298C13.5672 2.59844 13.4348 2.72017 13.4076 2.75687C13.212 3.02038 13.021 3.28525 12.815 3.5405C12.6756 3.71329 12.5304 3.88332 12.3692 4.04447C12.0161 4.39757 11.6285 4.72382 11.2505 5.04963C10.6548 5.56316 10.1747 6.23021 9.41741 6.51169C9.24925 6.57419 9.08638 6.56707 8.91068 6.56707C8.86211 6.56707 8.74505 6.58672 8.7113 6.61691C8.70473 6.62279 8.67212 6.68713 8.69746 6.67506C8.83556 6.6093 8.96193 6.49385 9.09343 6.41477C9.27651 6.30467 9.63339 6.13332 9.63339 5.87481C9.63339 5.71818 9.54291 5.65605 9.62232 5.47606C9.73595 5.2185 10.0274 5.04771 10.0321 4.75335C10.034 4.63678 10.0003 4.42876 10.082 4.33799C10.1632 4.24776 10.3325 4.14716 10.381 4.05001" stroke="white" stroke-linecap="round" stroke-linejoin="round"/>
<path d="M13.3125 13.5625C13.0072 13.4829 12.6779 13.2771 12.4063 13.1111C12.2729 13.0296 12.1832 12.9365 12.0868 12.8125C11.9596 12.649 11.7873 12.4782 11.6424 12.3333C11.4724 12.1633 11.3403 12.003 11.1892 11.8142C11.1004 11.7031 11.0139 11.5626 10.9444 11.4375C10.9005 11.3583 10.8185 11.3182 10.7813 11.2344C10.7414 11.1447 10.5571 10.997 10.4757 10.9375C10.3951 10.8786 10.3127 10.7953 10.2431 10.7257C10.1834 10.666 10.1443 10.5532 10.0938 10.4826C9.87163 10.1725 9.62211 9.88958 9.36285 9.61111C9.17327 9.40749 9.07087 9.24956 8.8125 9.1493C8.45046 9.00881 8.27614 8.72458 8.22049 8.36284C8.18489 8.13145 8.52585 8.52054 8.54514 8.53819C8.77022 8.74416 9.01497 8.92999 9.22743 9.1493C9.28898 9.21284 9.34909 9.28243 9.42361 9.32986C9.59467 9.43872 9.75046 9.55914 9.9132 9.68055C10.171 9.87289 10.3615 10.1382 10.5764 10.375C10.851 10.6776 11.1567 10.944 11.4479 11.2292C11.589 11.3673 11.7267 11.521 11.8559 11.6701C12.0777 11.9261 12.3681 12.0928 12.6424 12.2917C12.8969 12.4762 13.1362 12.7218 13.3715 12.9358C13.4581 13.0145 13.5625 13.1083 13.5625 13.2344C13.5625 13.3219 13.5731 13.4096 13.5069 13.4757C13.4834 13.4992 13.3271 13.5277 13.3142 13.4826C13.2646 13.3089 13.762 13.1514 13.7813 12.9687C13.7886 12.8992 13.741 12.9018 13.6875 12.875C13.5647 12.8136 13.4974 12.6797 13.4132 12.5764C13.2013 12.3164 12.8402 12.1041 12.5486 11.9375C12.2803 11.7842 12.0873 11.5682 11.8455 11.3941C11.3825 11.0608 10.982 10.623 10.5451 10.2656C10.5108 10.2375 10.2371 10.0281 10.2257 10.0382C10.1594 10.0971 10.305 10.4636 10.3125 10.5312" stroke="white" stroke-linecap="round" stroke-linejoin="round"/>
<path d="M1.5625 1.21875C1.6353 1.39433 1.77712 1.65042 1.95139 1.75C2.47071 2.04676 2.93265 2.47867 3.32292 2.93056C3.68399 3.34864 4.30078 3.4465 4.79167 3.625C5.01923 3.70775 5.17996 4.05491 5.35938 4.20312C5.78923 4.55822 6.29598 4.79384 6.59201 5.2934C6.74619 5.55357 6.75 5.98354 6.75 6.28125C6.75 6.4028 6.71563 6.5581 6.67188 6.67188C6.58838 6.88896 6.43695 6.6862 6.30729 6.57118C5.92434 6.23147 5.51982 5.76614 5.26562 5.31424C5.23532 5.26037 5.1628 5.16676 5.17014 5.10069C5.1748 5.0587 5.24269 5.14547 5.27257 5.17535C5.42422 5.32699 5.61923 5.43697 5.78472 5.57292C5.79566 5.5819 5.90343 5.67568 5.90104 5.66493C5.87684 5.55603 5.81391 5.42644 5.76389 5.32639C5.63892 5.07644 5.227 5.01281 5 4.89931C4.90626 4.85244 4.76983 4.78034 4.71181 4.6875C4.66479 4.61228 4.56597 4.60624 4.52431 4.53125C4.38025 4.27196 4.08448 4.14562 3.84028 4.00347C3.44522 3.77351 3.14062 3.53471 2.84375 3.20486C2.62003 2.95628 2.38992 2.74771 2.14236 2.52431C1.78402 2.20093 1.40625 1.88384 1.40625 1.375" stroke="white" stroke-linecap="round" stroke-linejoin="round"/>
<path d="M2.79688 2.03125C2.92816 2.13902 3.07303 2.22341 3.21007 2.32292C3.27669 2.37129 3.33701 2.45644 3.40625 2.49653C3.51771 2.56105 3.6426 2.61948 3.75434 2.6875C3.77759 2.70165 3.77251 2.72113 3.78906 2.73438C3.83229 2.76896 3.87645 2.7993 3.92361 2.82899C3.96678 2.85617 4.14062 3.01523 4.14062 2.92188" stroke="white" stroke-linecap="round" stroke-linejoin="round"/>
<mask id="path-9-inside-1" fill="white">
<path d="M1.02981 11.8798C1.999 11.0695 4.84957 8.67927 6.15673 7.51344C5.44911 6.86483 4.45837 5.9002 3.49472 4.96155C2.39157 3.88689 1.3494 2.87203 0.87715 2.47328C0.637619 2.27135 0.500327 1.97453 0.500327 1.65896C0.500327 1.26418 0.705678 0.914123 1.04977 0.722718C1.39214 0.532461 1.79516 0.54184 2.12815 0.748639C3.2031 1.41541 7.50031 4.50155 7.50031 5.1669C7.50031 5.36317 7.50833 5.59403 7.57824 5.85604C7.89956 5.30501 8.08363 4.80017 8.08363 4.58358C8.08363 4.16858 9.49383 2.81677 12.2752 0.565219C12.3906 0.471512 12.5592 0.480043 12.6648 0.585726L14.4148 2.33572C14.5205 2.4411 14.5293 2.60943 14.4353 2.72536C12.1838 5.50673 10.832 6.91692 10.417 6.91692C10.1693 6.91692 9.54682 7.15645 8.90687 7.56912C10.2001 8.71864 12.8359 10.9309 13.9702 11.8792C14.3071 12.1609 14.5002 12.5753 14.5002 13.0162C14.5002 13.8345 13.8346 14.5002 13.0163 14.5002C12.5756 14.5002 12.1609 14.3068 11.8792 13.9696C10.9046 12.8044 8.62517 10.0886 7.50012 8.82914C6.33922 10.1294 3.93405 12.9978 3.12045 13.9707C2.83903 14.3074 2.42461 14.5002 1.98426 14.5002C1.16595 14.5002 0.5003 13.8345 0.5003 13.0162C0.5003 12.5759 0.693128 12.1615 1.02981 11.8798ZM6.91694 5.2182C6.61017 4.73911 3.59868 2.34739 1.8205 1.24427C1.67011 1.15171 1.48781 1.14657 1.33343 1.23229C1.17705 1.31946 1.08365 1.47896 1.08365 1.65896C1.08365 1.80224 1.14544 1.93639 1.2534 2.02753C1.74159 2.43968 2.7909 3.46164 3.90173 4.54371C4.88088 5.49765 5.88693 6.47688 6.58955 7.11858C6.63341 7.07707 6.67856 7.03452 6.71071 7.00236C6.88372 6.82936 7.03906 6.64069 7.18318 6.44893C6.94387 5.94685 6.91768 5.51933 6.91694 5.2182ZM12.3267 13.5953C12.4973 13.7998 12.7488 13.9168 13.0163 13.9168C13.513 13.9168 13.9169 13.513 13.9169 13.0162C13.9169 12.7485 13.7998 12.4973 13.5959 12.3269C12.4304 11.3521 9.68291 9.04594 8.421 7.9175C8.27496 8.03407 8.13165 8.15626 7.99813 8.28978C7.9698 8.31811 7.93133 8.3591 7.8957 8.39656C9.01378 9.64471 11.3385 12.4142 12.3267 13.5953ZM1.98426 13.9169C2.25171 13.9169 2.50264 13.8001 2.67299 13.5964C3.91057 12.1165 6.86654 8.59655 7.58574 7.87736C8.46472 6.99837 9.79515 6.34043 10.3588 6.34043C10.3617 6.34043 10.3648 6.3407 10.3677 6.3407C10.7112 6.20713 12.3583 4.35061 13.8164 2.56215L13.6253 2.37102L10.9148 5.08145C10.8579 5.13841 10.7832 5.1669 10.7086 5.1669C10.634 5.1669 10.5594 5.13841 10.5024 5.08145C10.3884 4.96751 10.3884 4.78294 10.5024 4.66903L13.2128 1.95859L13.0419 1.7877L10.3315 4.49813C10.2745 4.55509 10.1999 4.58358 10.1252 4.58358C10.0506 4.58358 9.976 4.55509 9.91902 4.49813C9.80508 4.38419 9.80508 4.19962 9.91902 4.08571L12.6295 1.37527L12.4383 1.18414C10.6499 2.64218 8.79364 4.28736 8.6669 4.58358C8.6669 5.1914 8.00666 6.53123 7.12314 7.41479C6.40394 8.13398 2.88403 11.0899 1.40406 12.3272C1.20041 12.4979 1.08362 12.7488 1.08362 13.0162C1.08362 13.513 1.48751 13.9169 1.98426 13.9169Z"/>
</mask>
<path d="M1.02981 11.8798L0.388112 11.1128L0.38838 11.1126L1.02981 11.8798ZM6.15673 7.51344L6.83244 6.77627L7.64774 7.52359L6.82234 8.25975L6.15673 7.51344ZM3.49472 4.96155L2.79697 5.67788L2.79693 5.67785L3.49472 4.96155ZM0.87715 2.47328L1.5217 1.70872L1.52229 1.70922L0.87715 2.47328ZM1.04977 0.722718L0.563655 -0.151177L0.564026 -0.151384L1.04977 0.722718ZM2.12815 0.748639L1.60104 1.59844L1.60057 1.59815L2.12815 0.748639ZM7.57824 5.85604L8.4421 6.35977L7.23163 8.43564L6.61205 6.11387L7.57824 5.85604ZM12.2752 0.565219L12.9057 1.34142L12.9044 1.34247L12.2752 0.565219ZM12.6648 0.585726L13.3719 -0.12138L12.6648 0.585726ZM14.4148 2.33572L13.7087 3.04383L13.7077 3.04282L14.4148 2.33572ZM14.4353 2.72536L13.6581 2.09616L13.6586 2.09554L14.4353 2.72536ZM8.90687 7.56912L8.2425 8.31652L7.25871 7.44204L8.36493 6.7287L8.90687 7.56912ZM13.9702 11.8792L14.6116 11.112L14.6116 11.112L13.9702 11.8792ZM11.8792 13.9696L12.6463 13.328L12.6467 13.3285L11.8792 13.9696ZM7.50012 8.82914L6.75417 8.16314L7.49992 7.32785L8.2459 8.16294L7.50012 8.82914ZM3.12045 13.9707L2.35318 13.3294L2.35335 13.3292L3.12045 13.9707ZM6.91694 5.2182L7.75909 4.67895L7.91622 4.92435L7.91694 5.21574L6.91694 5.2182ZM1.8205 1.24427L2.34465 0.392632L2.34767 0.394506L1.8205 1.24427ZM1.33343 1.23229L0.846531 0.358834L0.847986 0.358026L1.33343 1.23229ZM1.2534 2.02753L1.89848 1.26341L1.89849 1.26342L1.2534 2.02753ZM3.90173 4.54371L4.59951 3.82739L4.59956 3.82744L3.90173 4.54371ZM6.58955 7.11858L7.27692 7.84488L6.60167 8.48393L5.91518 7.85697L6.58955 7.11858ZM7.18318 6.44893L8.08589 6.01867L8.34653 6.5655L7.98257 7.04975L7.18318 6.44893ZM12.3267 13.5953L13.0937 12.9536L13.0945 12.9546L12.3267 13.5953ZM13.5959 12.3269L12.9549 13.0945L12.9543 13.094L13.5959 12.3269ZM8.421 7.9175L7.79718 7.13593L8.45765 6.60876L9.08759 7.17207L8.421 7.9175ZM7.8957 8.39656L7.15085 9.06379L6.53496 8.37625L7.1711 7.70739L7.8957 8.39656ZM2.67299 13.5964L3.44013 14.2379L3.44003 14.238L2.67299 13.5964ZM10.3677 6.3407L10.7301 7.27272L10.5553 7.3407H10.3677V6.3407ZM13.8164 2.56215L14.5235 1.85504L15.1623 2.49383L14.5915 3.19402L13.8164 2.56215ZM13.6253 2.37102L12.9181 1.66391L13.6253 0.956803L14.3324 1.66391L13.6253 2.37102ZM10.9148 5.08145L11.6219 5.78856L10.9148 5.08145ZM10.5024 5.08145L9.79543 5.78873L9.79526 5.78856L10.5024 5.08145ZM10.5024 4.66903L11.2095 5.37613L11.2094 5.37622L10.5024 4.66903ZM13.2128 1.95859L13.9199 1.25149L14.627 1.95859L13.9199 2.6657L13.2128 1.95859ZM13.0419 1.7877L12.3348 1.08059L13.0419 0.373482L13.749 1.08059L13.0419 1.7877ZM10.3315 4.49813L9.62436 3.79102L10.3315 4.49813ZM9.91902 4.49813L9.21208 5.20541L9.21191 5.20524L9.91902 4.49813ZM9.91902 4.08571L10.6261 4.79281L10.626 4.7929L9.91902 4.08571ZM12.6295 1.37527L13.3366 0.668165L14.0437 1.37527L13.3366 2.08238L12.6295 1.37527ZM12.4383 1.18414L11.8064 0.409075L12.5066 -0.161763L13.1454 0.477034L12.4383 1.18414ZM8.6669 4.58358H7.6669V4.37863L7.74752 4.19021L8.6669 4.58358ZM7.12314 7.41479L7.83025 8.12188L7.83024 8.1219L7.12314 7.41479ZM1.40406 12.3272L0.761854 11.5607L0.762657 11.56L1.40406 12.3272ZM1.08362 13.0162H2.08362H1.08362ZM0.38838 11.1126C1.3622 10.2984 4.1986 7.91991 5.49113 6.76714L6.82234 8.25975C5.50054 9.43862 2.63581 11.8405 1.67124 12.647L0.38838 11.1126ZM5.48103 8.25062C4.7596 7.58935 3.75623 6.61227 2.79697 5.67788L4.19248 4.24521C5.1605 5.18813 6.13861 6.1403 6.83244 6.77627L5.48103 8.25062ZM2.79693 5.67785C1.67555 4.58543 0.669127 3.60643 0.232004 3.23734L1.52229 1.70922C2.02967 2.13763 3.1076 3.18835 4.19252 4.24525L2.79693 5.67785ZM0.232597 3.23784C-0.234357 2.84418 -0.499673 2.26664 -0.499673 1.65896H1.50033C1.50033 1.68243 1.5096 1.69852 1.5217 1.70872L0.232597 3.23784ZM-0.499673 1.65896C-0.499673 0.902634 -0.0988874 0.21737 0.563655 -0.151177L1.53588 1.59661C1.51806 1.60653 1.51143 1.61567 1.50849 1.62067C1.50553 1.62572 1.50033 1.63684 1.50033 1.65896H-0.499673ZM0.564026 -0.151384C1.22301 -0.517587 2.01386 -0.499486 2.65572 -0.100868L1.60057 1.59815C1.58362 1.58762 1.57322 1.58661 1.56865 1.5865C1.56404 1.58639 1.5533 1.58693 1.53551 1.59682L0.564026 -0.151384ZM2.65526 -0.101157C3.23266 0.256991 4.60568 1.21776 5.83045 2.16831C6.44376 2.6443 7.04279 3.1353 7.49591 3.55997C7.71995 3.76995 7.93132 3.98497 8.09416 4.18833C8.17509 4.2894 8.26224 4.40998 8.33352 4.5432C8.39479 4.65772 8.50031 4.88237 8.50031 5.1669H6.50031C6.50031 5.27712 6.52183 5.35979 6.53601 5.40386C6.55073 5.4496 6.56548 5.47815 6.57007 5.48672C6.57787 5.5013 6.57165 5.4867 6.53298 5.43842C6.45661 5.34304 6.32386 5.20259 6.12825 5.01926C5.74205 4.65731 5.19959 4.21036 4.60423 3.7483C3.41165 2.82274 2.09859 1.90706 1.60104 1.59844L2.65526 -0.101157ZM8.50031 5.1669C8.50031 5.33331 8.50804 5.46182 8.54443 5.59821L6.61205 6.11387C6.50861 5.72625 6.50031 5.39303 6.50031 5.1669H8.50031ZM6.71438 5.35231C6.85147 5.11722 6.95399 4.90064 7.01913 4.73273C7.05176 4.6486 7.07133 4.58615 7.08153 4.5466C7.09464 4.49572 7.08363 4.51644 7.08363 4.58358H9.08363C9.08363 4.89042 8.97572 5.21896 8.88374 5.45606C8.77651 5.73247 8.62633 6.04383 8.4421 6.35977L6.71438 5.35231ZM7.08363 4.58358C7.08363 4.28105 7.20046 4.03667 7.27071 3.9072C7.35326 3.75506 7.45817 3.60848 7.56561 3.47376C7.78179 3.20268 8.08154 2.88907 8.44437 2.54124C9.17492 1.84089 10.2483 0.919387 11.646 -0.21203L12.9044 1.34247C11.5207 2.4626 10.4983 3.34278 9.82843 3.98498C9.49104 4.30842 9.26441 4.55129 9.12926 4.72076C9.06103 4.80631 9.03405 4.85101 9.02861 4.86103C9.01088 4.89371 9.08363 4.78236 9.08363 4.58358H7.08363ZM11.6447 -0.21098C12.1583 -0.628156 12.9044 -0.588919 13.3719 -0.12138L11.9577 1.29283C12.2139 1.54901 12.6228 1.57118 12.9057 1.34142L11.6447 -0.21098ZM13.3719 -0.12138L15.1219 1.62861L13.7077 3.04282L11.9577 1.29283L13.3719 -0.12138ZM15.1209 1.6276C15.5899 2.09521 15.6287 2.84138 15.2121 3.35518L13.6586 2.09554C13.43 2.37747 13.4511 2.78698 13.7087 3.04383L15.1209 1.6276ZM15.2126 3.35456C14.0811 4.75221 13.1596 5.82563 12.4593 6.55618C12.1115 6.91901 11.7979 7.21876 11.5268 7.43494C11.3921 7.54237 11.2455 7.64729 11.0934 7.72984C10.9639 7.80009 10.7195 7.91692 10.417 7.91692V5.91692C10.2182 5.91692 10.1068 5.98968 10.1395 5.97194C10.1495 5.96651 10.1942 5.93952 10.2798 5.87129C10.4493 5.73615 10.6921 5.50951 11.0156 5.17212C11.6578 4.50223 12.5379 3.47988 13.6581 2.09616L15.2126 3.35456ZM10.417 7.91692C10.4893 7.91692 10.506 7.90421 10.4363 7.92372C10.3814 7.93908 10.2999 7.96693 10.1948 8.01086C9.98503 8.09858 9.72151 8.23368 9.44881 8.40953L8.36493 6.7287C8.73218 6.49188 9.09989 6.30089 9.42327 6.16567C9.70029 6.04984 10.0778 5.91692 10.417 5.91692V7.91692ZM9.57123 6.82171C10.8507 7.95904 13.4737 10.1607 14.6116 11.112L13.3287 12.6464C12.1981 11.7011 9.54943 9.47824 8.2425 8.31652L9.57123 6.82171ZM14.6116 11.112C15.1769 11.5847 15.5002 12.2806 15.5002 13.0162H13.5002C13.5002 12.87 13.4372 12.7371 13.3287 12.6464L14.6116 11.112ZM15.5002 13.0162C15.5002 14.3868 14.3869 15.5002 13.0163 15.5002V13.5002C13.2823 13.5002 13.5002 13.2823 13.5002 13.0162H15.5002ZM13.0163 15.5002C12.2805 15.5002 11.5843 15.1763 11.1118 14.6107L12.6467 13.3285C12.7376 13.4373 12.8707 13.5002 13.0163 13.5002V15.5002ZM11.1122 14.6112C10.1336 13.4413 7.86611 10.7399 6.75435 9.49533L8.2459 8.16294C9.38424 9.43727 11.6755 12.1675 12.6463 13.328L11.1122 14.6112ZM8.24608 9.49513C7.09845 10.7805 4.70527 13.6344 3.88754 14.6122L2.35335 13.3292C3.16283 12.3612 5.58 9.47828 6.75417 8.16314L8.24608 9.49513ZM3.88771 14.612C3.41503 15.1775 2.7189 15.5002 1.98426 15.5002V13.5002C2.13031 13.5002 2.26302 13.4372 2.35318 13.3294L3.88771 14.612ZM1.98426 15.5002C0.613668 15.5002 -0.4997 14.3868 -0.4997 13.0162H1.5003C1.5003 13.2823 1.71824 13.5002 1.98426 13.5002V15.5002ZM-0.4997 13.0162C-0.4997 12.2815 -0.176969 11.5856 0.388112 11.1128L1.6715 12.6467C1.56322 12.7373 1.5003 12.8703 1.5003 13.0162H-0.4997ZM6.07479 5.75744C6.10358 5.8024 6.09761 5.78231 5.98121 5.66771C5.88538 5.57335 5.75171 5.45056 5.58307 5.30314C5.24707 5.00938 4.80079 4.64264 4.30297 4.25179C3.30227 3.46613 2.13757 2.61776 1.29334 2.09403L2.34767 0.394506C3.28162 0.973897 4.51175 1.87295 5.53803 2.6787C6.0537 3.08356 6.52895 3.47352 6.89945 3.79743C7.08406 3.95883 7.24989 4.11011 7.38441 4.24256C7.49837 4.35477 7.65361 4.51422 7.75909 4.67895L6.07479 5.75744ZM1.29636 2.0959C1.44954 2.19018 1.65311 2.1986 1.81888 2.10656L0.847986 0.358026C1.32251 0.0945398 1.89069 0.113247 2.34464 0.392638L1.29636 2.0959ZM1.82033 2.10575C1.98267 2.01525 2.08365 1.83936 2.08365 1.65896H0.0836477C0.0836477 1.11856 0.371434 0.623674 0.846532 0.358835L1.82033 2.10575ZM2.08365 1.65896C2.08365 1.51242 2.01918 1.36531 1.89848 1.26341L0.608315 2.79164C0.271711 2.50747 0.0836477 2.09206 0.0836477 1.65896H2.08365ZM1.89849 1.26342C2.42179 1.70521 3.50668 2.76287 4.59951 3.82739L3.20396 5.26003C2.07512 4.16042 1.06139 3.17414 0.60831 2.79163L1.89849 1.26342ZM4.59956 3.82744C5.58334 4.78589 6.57599 5.75189 7.26392 6.38018L5.91518 7.85697C5.19788 7.20186 4.17842 6.2094 3.20391 5.25998L4.59956 3.82744ZM5.90219 6.39227C5.95166 6.34545 5.98379 6.31507 6.00361 6.29526L7.41782 7.70947C7.37332 7.75397 7.31517 7.80869 7.27692 7.84488L5.90219 6.39227ZM6.00361 6.29526C6.13239 6.16648 6.25668 6.01724 6.3838 5.84811L7.98257 7.04975C7.82143 7.26414 7.63505 7.49225 7.41782 7.70947L6.00361 6.29526ZM6.28048 6.87919C5.95178 6.18957 5.91786 5.5955 5.91694 5.22065L7.91694 5.21574C7.91749 5.44316 7.93596 5.70412 8.08589 6.01867L6.28048 6.87919ZM13.0945 12.9546C13.0736 12.9296 13.043 12.9168 13.0163 12.9168V14.9168C12.4546 14.9168 11.921 14.6699 11.5588 14.2359L13.0945 12.9546ZM13.0163 12.9168C12.9607 12.9168 12.9169 12.9607 12.9169 13.0162H14.9169C14.9169 14.0652 14.0653 14.9168 13.0163 14.9168V12.9168ZM12.9169 13.0162C12.9169 13.0425 12.9295 13.0733 12.9549 13.0945L14.2369 11.5594C14.6701 11.9212 14.9169 12.4544 14.9169 13.0162H12.9169ZM12.9543 13.094C11.7936 12.1231 9.03145 9.8049 7.75441 8.66293L9.08759 7.17207C10.3344 8.28698 13.0672 10.5811 14.2374 11.5599L12.9543 13.094ZM9.04482 8.69907C8.91454 8.80305 8.80258 8.89954 8.70524 8.99689L7.29102 7.58268C7.46072 7.41299 7.63537 7.26508 7.79718 7.13593L9.04482 8.69907ZM8.70524 8.99689C8.68866 9.01347 8.66514 9.03859 8.62031 9.08573L7.1711 7.70739C7.19752 7.67961 7.25095 7.62276 7.29102 7.58268L8.70524 8.99689ZM8.64055 7.72933C9.77254 8.99301 12.1098 11.7777 13.0937 12.9536L11.5597 14.237C10.5672 13.0507 8.25502 10.2964 7.15085 9.06379L8.64055 7.72933ZM1.98426 12.9169C1.95794 12.9169 1.92712 12.9295 1.90596 12.9548L3.44003 14.238C3.07817 14.6706 2.54548 14.9169 1.98426 14.9169V12.9169ZM1.90586 12.9549C3.12004 11.503 6.11834 7.93054 6.87863 7.17025L8.29284 8.58447C7.61475 9.26256 4.70109 12.73 3.44013 14.2379L1.90586 12.9549ZM6.87863 7.17025C7.40021 6.64867 8.03656 6.20895 8.61888 5.89749C8.91222 5.74059 9.20737 5.60788 9.48405 5.51205C9.74317 5.42229 10.0546 5.34043 10.3588 5.34043V7.34043C10.3812 7.34043 10.315 7.34081 10.1386 7.40189C9.97986 7.45689 9.78177 7.54361 9.56217 7.66106C9.1186 7.89832 8.65025 8.22706 8.29284 8.58447L6.87863 7.17025ZM10.3588 5.34043C10.375 5.34043 10.3881 5.34081 10.3957 5.34107C10.3996 5.34121 10.4029 5.34135 10.405 5.34144C10.407 5.34152 10.4087 5.3416 10.4088 5.34161C10.4094 5.34164 10.4085 5.34159 10.4073 5.34154C10.4059 5.34148 10.4034 5.34137 10.4001 5.34126C10.394 5.34105 10.3824 5.3407 10.3677 5.3407V7.3407C10.3515 7.3407 10.3384 7.34032 10.3309 7.34006C10.3269 7.33992 10.3236 7.33979 10.3215 7.3397C10.3195 7.33961 10.3178 7.33953 10.3177 7.33953C10.3171 7.3395 10.318 7.33955 10.3193 7.3396C10.3206 7.33966 10.3231 7.33976 10.3264 7.33987C10.3325 7.34009 10.3441 7.34043 10.3588 7.34043V5.34043ZM10.0053 5.40868C9.88077 5.45709 9.83344 5.51242 9.91597 5.4439C9.96717 5.40141 10.0436 5.33194 10.1468 5.23089C10.3515 5.03049 10.6199 4.74688 10.9324 4.40128C11.5552 3.7126 12.3201 2.81488 13.0413 1.93027L14.5915 3.19402C13.8546 4.09788 13.067 5.02265 12.4158 5.74274C12.0913 6.10153 11.7923 6.41887 11.546 6.66002C11.4237 6.77975 11.3037 6.89121 11.1934 6.98279C11.1144 7.04836 10.9405 7.19092 10.7301 7.27272L10.0053 5.40868ZM13.1093 3.26926L12.9181 3.07812L14.3324 1.66391L14.5235 1.85504L13.1093 3.26926ZM14.3324 3.07812L11.6219 5.78856L10.2077 4.37434L12.9181 1.66391L14.3324 3.07812ZM11.6219 5.78856C11.37 6.04045 11.0378 6.1669 10.7086 6.1669V4.1669C10.5287 4.1669 10.3457 4.23636 10.2077 4.37434L11.6219 5.78856ZM10.7086 6.1669C10.3793 6.1669 10.0472 6.04036 9.79543 5.78873L11.2093 4.37417C11.0715 4.23645 10.8887 4.1669 10.7086 4.1669V6.1669ZM9.79526 5.78856C9.29084 5.28414 9.29072 4.46634 9.79534 3.96184L11.2094 5.37622C11.4861 5.09954 11.486 4.65088 11.2095 4.37434L9.79526 5.78856ZM9.79526 3.96192L12.5057 1.25149L13.9199 2.6657L11.2095 5.37613L9.79526 3.96192ZM12.5057 2.6657L12.3348 2.4948L13.749 1.08059L13.9199 1.25149L12.5057 2.6657ZM13.749 2.4948L11.0386 5.20524L9.62436 3.79102L12.3348 1.08059L13.749 2.4948ZM11.0386 5.20524C10.7867 5.45713 10.4544 5.58358 10.1252 5.58358V3.58358C9.9453 3.58358 9.76234 3.65304 9.62436 3.79102L11.0386 5.20524ZM10.1252 5.58358C9.79592 5.58358 9.46384 5.45704 9.21208 5.20541L10.626 3.79085C10.4882 3.65313 10.3053 3.58358 10.1252 3.58358V5.58358ZM9.21191 5.20524C8.70749 4.70082 8.70737 3.88302 9.212 3.37851L10.626 4.7929C10.9028 4.51622 10.9027 4.06756 10.6261 3.79102L9.21191 5.20524ZM9.21191 3.3786L11.9223 0.668166L13.3366 2.08238L10.6261 4.79281L9.21191 3.3786ZM11.9223 2.08238L11.7312 1.89125L13.1454 0.477034L13.3366 0.668165L11.9223 2.08238ZM13.0702 1.95921C12.1857 2.6803 11.2867 3.44588 10.597 4.06417C10.251 4.3743 9.96563 4.64025 9.76346 4.84139C9.66147 4.94286 9.59021 5.01839 9.54594 5.0692C9.47049 5.15579 9.53178 5.10434 9.58628 4.97694L7.74752 4.19021C7.83371 3.98877 7.98073 3.82111 8.03804 3.75533C8.12653 3.65378 8.23505 3.54078 8.35285 3.42358C8.59026 3.18738 8.90451 2.89536 9.26199 2.57492C9.97916 1.93206 10.9025 1.14603 11.8064 0.409075L13.0702 1.95921ZM9.6669 4.58358C9.6669 5.14391 9.40111 5.813 9.1105 6.36298C8.79701 6.95625 8.35475 7.59737 7.83025 8.12188L6.41602 6.70769C6.77505 6.34865 7.10468 5.87808 7.34219 5.42859C7.45977 5.20606 7.54676 5.00377 7.60219 4.8391C7.66249 4.65996 7.6669 4.57989 7.6669 4.58358H9.6669ZM7.83024 8.1219C7.06992 8.88222 3.49756 11.8804 2.04546 13.0944L0.762657 11.56C2.2705 10.2994 5.73797 7.38574 6.41603 6.70768L7.83024 8.1219ZM2.04627 13.0938C2.07088 13.0731 2.08362 13.0427 2.08362 13.0162H0.083621C0.083621 12.4549 0.32993 11.9226 0.761854 11.5607L2.04627 13.0938ZM2.08362 13.0162C2.08362 12.9607 2.0398 12.9169 1.98426 12.9169V14.9169C0.93523 14.9169 0.083621 14.0653 0.083621 13.0162H2.08362Z" fill="#FE470C" mask="url(#path-9-inside-1)"/>
</g>
<defs>
<clipPath id="clip0">
<rect width="14" height="14" fill="white" transform="matrix(-1 0 0 1 14.5 0.5)"/>
</clipPath>
</defs>
</svg>
