<svg width="14" height="14" viewBox="0 0 14 14" fill="none" xmlns="http://www.w3.org/2000/svg">
<g clip-path="url(#clip0)">
<mask id="path-1-inside-1" fill="white">
<path d="M0.529809 11.3798C1.499 10.5695 4.34957 8.17927 5.65673 7.01344C4.94911 6.36483 3.95837 5.4002 2.99472 4.46155C1.89157 3.38689 0.849401 2.37203 0.37715 1.97328C0.137619 1.77135 0.00032711 1.47453 0.00032711 1.15896C0.00032711 0.764175 0.205678 0.414123 0.54977 0.222718C0.892139 0.032461 1.29516 0.0418398 1.62815 0.248639C2.7031 0.915413 7.00031 4.00155 7.00031 4.6669C7.00031 4.86317 7.00833 5.09403 7.07824 5.35604C7.39956 4.80501 7.58363 4.30017 7.58363 4.08358C7.58363 3.66858 8.99383 2.31677 11.7752 0.0652186C11.8906 -0.0284879 12.0592 -0.0199567 12.1648 0.0857263L13.9148 1.83572C14.0205 1.9411 14.0293 2.10943 13.9353 2.22536C11.6838 5.00673 10.332 6.41692 9.91697 6.41692C9.66935 6.41692 9.04682 6.65645 8.40687 7.06912C9.70008 8.21864 12.3359 10.4309 13.4702 11.3792C13.8071 11.6609 14.0002 12.0753 14.0002 12.5162C14.0002 13.3345 13.3346 14.0002 12.5163 14.0002C12.0756 14.0002 11.6609 13.8068 11.3792 13.4696C10.4046 12.3044 8.12517 9.58858 7.00012 8.32914C5.83922 9.62941 3.43405 12.4978 2.62045 13.4707C2.33903 13.8074 1.92461 14.0002 1.48426 14.0002C0.665953 14.0002 0.000300407 13.3345 0.000300407 12.5162C0.000300407 12.0759 0.193128 11.6615 0.529809 11.3798ZM6.41694 4.7182C6.11017 4.23911 3.09868 1.84739 1.3205 0.744269C1.17011 0.651711 0.987814 0.646571 0.833432 0.732293C0.677054 0.819464 0.583648 0.978959 0.583648 1.15896C0.583648 1.30224 0.645445 1.43639 0.753397 1.52753C1.24159 1.93968 2.2909 2.96164 3.40173 4.04371C4.38088 4.99765 5.38693 5.97688 6.08955 6.61858C6.13341 6.57707 6.17856 6.53452 6.21071 6.50236C6.38372 6.32936 6.53906 6.14069 6.68318 5.94893C6.44387 5.44685 6.41768 5.01933 6.41694 4.7182ZM11.8267 13.0953C11.9973 13.2998 12.2488 13.4168 12.5163 13.4168C13.013 13.4168 13.4169 13.013 13.4169 12.5162C13.4169 12.2485 13.2998 11.9973 13.0959 11.8269C11.9304 10.8521 9.18291 8.54594 7.921 7.4175C7.77496 7.53407 7.63165 7.65626 7.49813 7.78978C7.4698 7.81811 7.43133 7.8591 7.3957 7.89656C8.51378 9.14471 10.8385 11.9142 11.8267 13.0953ZM1.48426 13.4169C1.75171 13.4169 2.00264 13.3001 2.17299 13.0964C3.41057 11.6165 6.36654 8.09655 7.08574 7.37736C7.96472 6.49837 9.29515 5.84043 9.85884 5.84043C9.86168 5.84043 9.86483 5.8407 9.86767 5.8407C10.2112 5.70713 11.8583 3.85061 13.3164 2.06215L13.1253 1.87102L10.4148 4.58145C10.3579 4.63841 10.2832 4.6669 10.2086 4.6669C10.134 4.6669 10.0594 4.63841 10.0024 4.58145C9.88843 4.46751 9.88843 4.28294 10.0024 4.16903L12.7128 1.45859L12.5419 1.2877L9.83147 3.99813C9.77451 4.05509 9.69986 4.08358 9.62524 4.08358C9.55062 4.08358 9.476 4.05509 9.41902 3.99813C9.30508 3.88419 9.30508 3.69962 9.41902 3.58571L12.1295 0.875273L11.9383 0.684141C10.1499 2.14218 8.29364 3.78736 8.1669 4.08358C8.1669 4.6914 7.50666 6.03123 6.62314 6.91479C5.90394 7.63398 2.38403 10.5899 0.904061 11.8272C0.700406 11.9979 0.583621 12.2488 0.583621 12.5162C0.583621 13.013 0.987514 13.4169 1.48426 13.4169Z"/>
</mask>
<path d="M0.529809 11.3798C1.499 10.5695 4.34957 8.17927 5.65673 7.01344C4.94911 6.36483 3.95837 5.4002 2.99472 4.46155C1.89157 3.38689 0.849401 2.37203 0.37715 1.97328C0.137619 1.77135 0.00032711 1.47453 0.00032711 1.15896C0.00032711 0.764175 0.205678 0.414123 0.54977 0.222718C0.892139 0.032461 1.29516 0.0418398 1.62815 0.248639C2.7031 0.915413 7.00031 4.00155 7.00031 4.6669C7.00031 4.86317 7.00833 5.09403 7.07824 5.35604C7.39956 4.80501 7.58363 4.30017 7.58363 4.08358C7.58363 3.66858 8.99383 2.31677 11.7752 0.0652186C11.8906 -0.0284879 12.0592 -0.0199567 12.1648 0.0857263L13.9148 1.83572C14.0205 1.9411 14.0293 2.10943 13.9353 2.22536C11.6838 5.00673 10.332 6.41692 9.91697 6.41692C9.66935 6.41692 9.04682 6.65645 8.40687 7.06912C9.70008 8.21864 12.3359 10.4309 13.4702 11.3792C13.8071 11.6609 14.0002 12.0753 14.0002 12.5162C14.0002 13.3345 13.3346 14.0002 12.5163 14.0002C12.0756 14.0002 11.6609 13.8068 11.3792 13.4696C10.4046 12.3044 8.12517 9.58858 7.00012 8.32914C5.83922 9.62941 3.43405 12.4978 2.62045 13.4707C2.33903 13.8074 1.92461 14.0002 1.48426 14.0002C0.665953 14.0002 0.000300407 13.3345 0.000300407 12.5162C0.000300407 12.0759 0.193128 11.6615 0.529809 11.3798ZM6.41694 4.7182C6.11017 4.23911 3.09868 1.84739 1.3205 0.744269C1.17011 0.651711 0.987814 0.646571 0.833432 0.732293C0.677054 0.819464 0.583648 0.978959 0.583648 1.15896C0.583648 1.30224 0.645445 1.43639 0.753397 1.52753C1.24159 1.93968 2.2909 2.96164 3.40173 4.04371C4.38088 4.99765 5.38693 5.97688 6.08955 6.61858C6.13341 6.57707 6.17856 6.53452 6.21071 6.50236C6.38372 6.32936 6.53906 6.14069 6.68318 5.94893C6.44387 5.44685 6.41768 5.01933 6.41694 4.7182ZM11.8267 13.0953C11.9973 13.2998 12.2488 13.4168 12.5163 13.4168C13.013 13.4168 13.4169 13.013 13.4169 12.5162C13.4169 12.2485 13.2998 11.9973 13.0959 11.8269C11.9304 10.8521 9.18291 8.54594 7.921 7.4175C7.77496 7.53407 7.63165 7.65626 7.49813 7.78978C7.4698 7.81811 7.43133 7.8591 7.3957 7.89656C8.51378 9.14471 10.8385 11.9142 11.8267 13.0953ZM1.48426 13.4169C1.75171 13.4169 2.00264 13.3001 2.17299 13.0964C3.41057 11.6165 6.36654 8.09655 7.08574 7.37736C7.96472 6.49837 9.29515 5.84043 9.85884 5.84043C9.86168 5.84043 9.86483 5.8407 9.86767 5.8407C10.2112 5.70713 11.8583 3.85061 13.3164 2.06215L13.1253 1.87102L10.4148 4.58145C10.3579 4.63841 10.2832 4.6669 10.2086 4.6669C10.134 4.6669 10.0594 4.63841 10.0024 4.58145C9.88843 4.46751 9.88843 4.28294 10.0024 4.16903L12.7128 1.45859L12.5419 1.2877L9.83147 3.99813C9.77451 4.05509 9.69986 4.08358 9.62524 4.08358C9.55062 4.08358 9.476 4.05509 9.41902 3.99813C9.30508 3.88419 9.30508 3.69962 9.41902 3.58571L12.1295 0.875273L11.9383 0.684141C10.1499 2.14218 8.29364 3.78736 8.1669 4.08358C8.1669 4.6914 7.50666 6.03123 6.62314 6.91479C5.90394 7.63398 2.38403 10.5899 0.904061 11.8272C0.700406 11.9979 0.583621 12.2488 0.583621 12.5162C0.583621 13.013 0.987514 13.4169 1.48426 13.4169Z" fill="black"/>
<path d="M0.529809 11.3798L-0.111888 10.6128L-0.11162 10.6126L0.529809 11.3798ZM5.65673 7.01344L6.33244 6.27627L7.14774 7.02359L6.32234 7.75975L5.65673 7.01344ZM2.99472 4.46155L2.29697 5.17788L2.29693 5.17785L2.99472 4.46155ZM0.37715 1.97328L1.0217 1.20872L1.02229 1.20922L0.37715 1.97328ZM0.54977 0.222718L0.0636549 -0.651177L0.0640259 -0.651384L0.54977 0.222718ZM1.62815 0.248639L1.10104 1.09844L1.10057 1.09815L1.62815 0.248639ZM7.07824 5.35604L7.9421 5.85977L6.73163 7.93564L6.11205 5.61387L7.07824 5.35604ZM11.7752 0.0652186L12.4057 0.841418L12.4044 0.842467L11.7752 0.0652186ZM12.1648 0.0857263L12.8719 -0.62138L12.1648 0.0857263ZM13.9148 1.83572L13.2087 2.54383L13.2077 2.54282L13.9148 1.83572ZM13.9353 2.22536L13.1581 1.59616L13.1586 1.59554L13.9353 2.22536ZM8.40687 7.06912L7.7425 7.81652L6.75871 6.94204L7.86493 6.2287L8.40687 7.06912ZM13.4702 11.3792L14.1116 10.612L14.1116 10.612L13.4702 11.3792ZM11.3792 13.4696L12.1463 12.828L12.1467 12.8285L11.3792 13.4696ZM7.00012 8.32914L6.25417 7.66314L6.99992 6.82785L7.7459 7.66294L7.00012 8.32914ZM2.62045 13.4707L1.85318 12.8294L1.85335 12.8292L2.62045 13.4707ZM6.41694 4.7182L7.25909 4.17895L7.41622 4.42435L7.41694 4.71574L6.41694 4.7182ZM1.3205 0.744269L1.84465 -0.107368L1.84767 -0.105494L1.3205 0.744269ZM0.833432 0.732293L0.346531 -0.141166L0.347986 -0.141974L0.833432 0.732293ZM0.753397 1.52753L1.39848 0.763414L1.39849 0.763418L0.753397 1.52753ZM3.40173 4.04371L4.09951 3.32739L4.09956 3.32744L3.40173 4.04371ZM6.08955 6.61858L6.77692 7.34488L6.10167 7.98393L5.41518 7.35697L6.08955 6.61858ZM6.68318 5.94893L7.58589 5.51867L7.84653 6.0655L7.48257 6.54975L6.68318 5.94893ZM11.8267 13.0953L12.5937 12.4536L12.5945 12.4546L11.8267 13.0953ZM13.0959 11.8269L12.4549 12.5945L12.4543 12.594L13.0959 11.8269ZM7.921 7.4175L7.29718 6.63593L7.95765 6.10876L8.58759 6.67207L7.921 7.4175ZM7.3957 7.89656L6.65085 8.56379L6.03496 7.87625L6.6711 7.20739L7.3957 7.89656ZM2.17299 13.0964L2.94013 13.7379L2.94003 13.738L2.17299 13.0964ZM9.86767 5.8407L10.2301 6.77272L10.0553 6.8407H9.86767V5.8407ZM13.3164 2.06215L14.0235 1.35504L14.6623 1.99383L14.0915 2.69402L13.3164 2.06215ZM13.1253 1.87102L12.4181 1.16391L13.1253 0.456803L13.8324 1.16391L13.1253 1.87102ZM10.4148 4.58145L11.1219 5.28856L10.4148 4.58145ZM10.0024 4.58145L9.29543 5.28873L9.29526 5.28856L10.0024 4.58145ZM10.0024 4.16903L10.7095 4.87613L10.7094 4.87622L10.0024 4.16903ZM12.7128 1.45859L13.4199 0.751487L14.127 1.45859L13.4199 2.1657L12.7128 1.45859ZM12.5419 1.2877L11.8348 0.580589L12.5419 -0.126518L13.249 0.580589L12.5419 1.2877ZM9.83147 3.99813L9.12436 3.29102L9.83147 3.99813ZM9.41902 3.99813L8.71208 4.70541L8.71191 4.70524L9.41902 3.99813ZM9.41902 3.58571L10.1261 4.29281L10.126 4.2929L9.41902 3.58571ZM12.1295 0.875273L12.8366 0.168165L13.5437 0.875272L12.8366 1.58238L12.1295 0.875273ZM11.9383 0.684141L11.3064 -0.0909245L12.0066 -0.661763L12.6454 -0.0229663L11.9383 0.684141ZM8.1669 4.08358H7.1669V3.87863L7.24752 3.69021L8.1669 4.08358ZM6.62314 6.91479L7.33025 7.62188L7.33024 7.6219L6.62314 6.91479ZM0.904061 11.8272L0.261854 11.0607L0.262657 11.06L0.904061 11.8272ZM0.583621 12.5162H1.58362H0.583621ZM-0.11162 10.6126C0.862198 9.7984 3.6986 7.41991 4.99113 6.26714L6.32234 7.75975C5.00054 8.93862 2.13581 11.3405 1.17124 12.147L-0.11162 10.6126ZM4.98103 7.75062C4.2596 7.08935 3.25623 6.11227 2.29697 5.17788L3.69248 3.74521C4.6605 4.68813 5.63861 5.6403 6.33244 6.27627L4.98103 7.75062ZM2.29693 5.17785C1.17555 4.08543 0.169127 3.10643 -0.267996 2.73734L1.02229 1.20922C1.52967 1.63763 2.6076 2.68835 3.69252 3.74525L2.29693 5.17785ZM-0.267403 2.73784C-0.734357 2.34418 -0.999673 1.76664 -0.999673 1.15896H1.00033C1.00033 1.18243 1.0096 1.19852 1.0217 1.20872L-0.267403 2.73784ZM-0.999673 1.15896C-0.999673 0.402634 -0.598887 -0.28263 0.0636549 -0.651177L1.03588 1.09661C1.01806 1.10653 1.01143 1.11567 1.00849 1.12067C1.00553 1.12572 1.00033 1.13684 1.00033 1.15896H-0.999673ZM0.0640259 -0.651384C0.723013 -1.01759 1.51386 -0.999486 2.15572 -0.600868L1.10057 1.09815C1.08362 1.08762 1.07322 1.08661 1.06865 1.0865C1.06404 1.08639 1.0533 1.08693 1.03551 1.09682L0.0640259 -0.651384ZM2.15526 -0.601157C2.73266 -0.243009 4.10568 0.717763 5.33045 1.66831C5.94376 2.1443 6.54279 2.6353 6.99591 3.05997C7.21995 3.26995 7.43132 3.48497 7.59416 3.68833C7.67509 3.7894 7.76224 3.90998 7.83352 4.0432C7.89479 4.15772 8.00031 4.38237 8.00031 4.6669H6.00031C6.00031 4.77712 6.02183 4.85979 6.03601 4.90386C6.05073 4.9496 6.06548 4.97815 6.07007 4.98672C6.07787 5.0013 6.07165 4.9867 6.03298 4.93842C5.95661 4.84304 5.82386 4.70259 5.62825 4.51926C5.24205 4.15731 4.69959 3.71036 4.10423 3.2483C2.91165 2.32274 1.59859 1.40706 1.10104 1.09844L2.15526 -0.601157ZM8.00031 4.6669C8.00031 4.83331 8.00804 4.96182 8.04443 5.09821L6.11205 5.61387C6.00861 5.22625 6.00031 4.89303 6.00031 4.6669H8.00031ZM6.21438 4.85231C6.35147 4.61722 6.45399 4.40064 6.51913 4.23273C6.55176 4.1486 6.57133 4.08615 6.58153 4.0466C6.59464 3.99572 6.58363 4.01644 6.58363 4.08358H8.58363C8.58363 4.39042 8.47572 4.71896 8.38374 4.95606C8.27651 5.23247 8.12633 5.54383 7.9421 5.85977L6.21438 4.85231ZM6.58363 4.08358C6.58363 3.78105 6.70046 3.53667 6.77071 3.4072C6.85326 3.25506 6.95817 3.10848 7.06561 2.97376C7.28179 2.70268 7.58154 2.38907 7.94437 2.04124C8.67492 1.34089 9.74835 0.419387 11.146 -0.71203L12.4044 0.842467C11.0207 1.9626 9.99832 2.84278 9.32843 3.48498C8.99104 3.80842 8.76441 4.05129 8.62926 4.22076C8.56103 4.30631 8.53405 4.35101 8.52861 4.36103C8.51088 4.39371 8.58363 4.28236 8.58363 4.08358H6.58363ZM11.1447 -0.71098C11.6583 -1.12816 12.4044 -1.08892 12.8719 -0.62138L11.4577 0.792833C11.7139 1.04901 12.1228 1.07118 12.4057 0.841417L11.1447 -0.71098ZM12.8719 -0.62138L14.6219 1.12861L13.2077 2.54282L11.4577 0.792833L12.8719 -0.62138ZM14.6209 1.1276C15.0899 1.59521 15.1287 2.34138 14.7121 2.85518L13.1586 1.59554C12.93 1.87747 12.9511 2.28698 13.2087 2.54383L14.6209 1.1276ZM14.7126 2.85456C13.5811 4.25221 12.6596 5.32563 11.9593 6.05618C11.6115 6.41901 11.2979 6.71876 11.0268 6.93494C10.8921 7.04237 10.7455 7.14729 10.5934 7.22984C10.4639 7.30009 10.2195 7.41692 9.91697 7.41692V5.41692C9.71819 5.41692 9.60683 5.48968 9.63952 5.47194C9.64953 5.46651 9.69423 5.43952 9.77979 5.37129C9.94925 5.23615 10.1921 5.00951 10.5156 4.67212C11.1578 4.00223 12.0379 2.97988 13.1581 1.59616L14.7126 2.85456ZM9.91697 7.41692C9.98927 7.41692 10.006 7.40421 9.93628 7.42372C9.88145 7.43908 9.79988 7.46693 9.69481 7.51086C9.48503 7.59858 9.22151 7.73368 8.94881 7.90953L7.86493 6.2287C8.23218 5.99188 8.59989 5.80089 8.92327 5.66567C9.20029 5.54984 9.57778 5.41692 9.91697 5.41692V7.41692ZM9.07123 6.32171C10.3507 7.45904 12.9737 9.66068 14.1116 10.612L12.8287 12.1464C11.6981 11.2011 9.04943 8.97824 7.7425 7.81652L9.07123 6.32171ZM14.1116 10.612C14.6769 11.0847 15.0002 11.7806 15.0002 12.5162H13.0002C13.0002 12.37 12.9372 12.2371 12.8287 12.1464L14.1116 10.612ZM15.0002 12.5162C15.0002 13.8868 13.8869 15.0002 12.5163 15.0002V13.0002C12.7823 13.0002 13.0002 12.7823 13.0002 12.5162H15.0002ZM12.5163 15.0002C11.7805 15.0002 11.0843 14.6763 10.6118 14.1107L12.1467 12.8285C12.2376 12.9373 12.3707 13.0002 12.5163 13.0002V15.0002ZM10.6122 14.1112C9.6336 12.9413 7.36611 10.2399 6.25435 8.99533L7.7459 7.66294C8.88424 8.93727 11.1755 11.6675 12.1463 12.828L10.6122 14.1112ZM7.74608 8.99513C6.59845 10.2805 4.20527 13.1344 3.38754 14.1122L1.85335 12.8292C2.66283 11.8612 5.08 8.97828 6.25417 7.66314L7.74608 8.99513ZM3.38771 14.112C2.91503 14.6775 2.2189 15.0002 1.48426 15.0002V13.0002C1.63031 13.0002 1.76302 12.9372 1.85318 12.8294L3.38771 14.112ZM1.48426 15.0002C0.113668 15.0002 -0.9997 13.8868 -0.9997 12.5162H1.0003C1.0003 12.7823 1.21824 13.0002 1.48426 13.0002V15.0002ZM-0.9997 12.5162C-0.9997 11.7815 -0.676969 11.0856 -0.111888 10.6128L1.1715 12.1467C1.06322 12.2373 1.0003 12.3703 1.0003 12.5162H-0.9997ZM5.57479 5.25744C5.60358 5.3024 5.59761 5.28231 5.48121 5.16771C5.38538 5.07335 5.25171 4.95056 5.08307 4.80314C4.74707 4.50938 4.30079 4.14264 3.80297 3.75179C2.80227 2.96613 1.63757 2.11776 0.793339 1.59403L1.84767 -0.105494C2.78162 0.473897 4.01175 1.37295 5.03803 2.1787C5.5537 2.58356 6.02895 2.97352 6.39945 3.29743C6.58406 3.45883 6.74989 3.61011 6.88441 3.74256C6.99837 3.85477 7.15361 4.01422 7.25909 4.17895L5.57479 5.25744ZM0.796363 1.5959C0.949542 1.69018 1.15311 1.6986 1.31888 1.60656L0.347986 -0.141974C0.822514 -0.40546 1.39069 -0.386753 1.84464 -0.107362L0.796363 1.5959ZM1.32033 1.60575C1.48267 1.51525 1.58365 1.33936 1.58365 1.15896H-0.416352C-0.416352 0.618555 -0.128566 0.123674 0.346532 -0.141165L1.32033 1.60575ZM1.58365 1.15896C1.58365 1.01242 1.51918 0.865311 1.39848 0.763414L0.108315 2.29164C-0.228289 2.00747 -0.416352 1.59206 -0.416352 1.15896H1.58365ZM1.39849 0.763418C1.92179 1.20521 3.00668 2.26287 4.09951 3.32739L2.70396 4.76003C1.57512 3.66042 0.561387 2.67414 0.10831 2.29163L1.39849 0.763418ZM4.09956 3.32744C5.08334 4.28589 6.07599 5.25189 6.76392 5.88018L5.41518 7.35697C4.69788 6.70186 3.67842 5.7094 2.70391 4.75998L4.09956 3.32744ZM5.40219 5.89227C5.45166 5.84545 5.48379 5.81507 5.50361 5.79526L6.91782 7.20947C6.87332 7.25397 6.81517 7.30869 6.77692 7.34488L5.40219 5.89227ZM5.50361 5.79526C5.63239 5.66648 5.75668 5.51724 5.8838 5.34811L7.48257 6.54975C7.32143 6.76414 7.13505 6.99225 6.91782 7.20947L5.50361 5.79526ZM5.78048 6.37919C5.45178 5.68957 5.41786 5.0955 5.41694 4.72065L7.41694 4.71574C7.41749 4.94316 7.43596 5.20412 7.58589 5.51867L5.78048 6.37919ZM12.5945 12.4546C12.5736 12.4296 12.543 12.4168 12.5163 12.4168V14.4168C11.9546 14.4168 11.421 14.1699 11.0588 13.7359L12.5945 12.4546ZM12.5163 12.4168C12.4607 12.4168 12.4169 12.4607 12.4169 12.5162H14.4169C14.4169 13.5652 13.5653 14.4168 12.5163 14.4168V12.4168ZM12.4169 12.5162C12.4169 12.5425 12.4295 12.5733 12.4549 12.5945L13.7369 11.0594C14.1701 11.4212 14.4169 11.9544 14.4169 12.5162H12.4169ZM12.4543 12.594C11.2936 11.6231 8.53145 9.3049 7.25441 8.16293L8.58759 6.67207C9.83436 7.78698 12.5672 10.0811 13.7374 11.0599L12.4543 12.594ZM8.54482 8.19907C8.41454 8.30305 8.30258 8.39954 8.20524 8.49689L6.79102 7.08268C6.96072 6.91299 7.13537 6.76508 7.29718 6.63593L8.54482 8.19907ZM8.20524 8.49689C8.18866 8.51347 8.16514 8.53859 8.12031 8.58573L6.6711 7.20739C6.69752 7.17961 6.75095 7.12276 6.79102 7.08268L8.20524 8.49689ZM8.14055 7.22933C9.27254 8.49301 11.6098 11.2777 12.5937 12.4536L11.0597 13.737C10.0672 12.5507 7.75502 9.79642 6.65085 8.56379L8.14055 7.22933ZM1.48426 12.4169C1.45794 12.4169 1.42712 12.4295 1.40596 12.4548L2.94003 13.738C2.57817 14.1706 2.04548 14.4169 1.48426 14.4169V12.4169ZM1.40586 12.4549C2.62004 11.003 5.61834 7.43054 6.37863 6.67025L7.79284 8.08447C7.11475 8.76256 4.20109 12.23 2.94013 13.7379L1.40586 12.4549ZM6.37863 6.67025C6.90021 6.14867 7.53656 5.70895 8.11888 5.39749C8.41222 5.24059 8.70737 5.10788 8.98405 5.01205C9.24317 4.92229 9.55461 4.84043 9.85884 4.84043V6.84043C9.88123 6.84043 9.81498 6.84081 9.63864 6.90189C9.47986 6.95689 9.28177 7.04361 9.06217 7.16106C8.6186 7.39832 8.15025 7.72706 7.79284 8.08447L6.37863 6.67025ZM9.85884 4.84043C9.87499 4.84043 9.88807 4.84081 9.89566 4.84107C9.89964 4.84121 9.90292 4.84135 9.90501 4.84144C9.90697 4.84152 9.9087 4.8416 9.90884 4.84161C9.90945 4.84164 9.90846 4.84159 9.90726 4.84154C9.90591 4.84148 9.90337 4.84137 9.90013 4.84126C9.89402 4.84105 9.88241 4.8407 9.86767 4.8407V6.8407C9.85152 6.8407 9.83844 6.84032 9.83085 6.84006C9.82688 6.83992 9.8236 6.83979 9.8215 6.8397C9.81955 6.83961 9.81781 6.83953 9.81767 6.83953C9.81707 6.8395 9.81805 6.83955 9.81926 6.8396C9.82061 6.83966 9.82314 6.83976 9.82638 6.83987C9.83249 6.84009 9.84411 6.84043 9.85884 6.84043V4.84043ZM9.50527 4.90868C9.38077 4.95709 9.33344 5.01242 9.41597 4.9439C9.46717 4.90141 9.54364 4.83194 9.64685 4.73089C9.85154 4.53049 10.1199 4.24688 10.4324 3.90128C11.0552 3.2126 11.8201 2.31488 12.5413 1.43027L14.0915 2.69402C13.3546 3.59788 12.567 4.52265 11.9158 5.24274C11.5913 5.60153 11.2923 5.91887 11.046 6.16002C10.9237 6.27975 10.8037 6.39121 10.6934 6.48279C10.6144 6.54836 10.4405 6.69092 10.2301 6.77272L9.50527 4.90868ZM12.6093 2.76926L12.4181 2.57812L13.8324 1.16391L14.0235 1.35504L12.6093 2.76926ZM13.8324 2.57812L11.1219 5.28856L9.70771 3.87434L12.4181 1.16391L13.8324 2.57812ZM11.1219 5.28856C10.87 5.54045 10.5378 5.6669 10.2086 5.6669V3.6669C10.0287 3.6669 9.84569 3.73636 9.70771 3.87434L11.1219 5.28856ZM10.2086 5.6669C9.87926 5.6669 9.54718 5.54036 9.29543 5.28873L10.7093 3.87417C10.5715 3.73645 10.3887 3.6669 10.2086 3.6669V5.6669ZM9.29526 5.28856C8.79084 4.78414 8.79072 3.96634 9.29534 3.46184L10.7094 4.87622C10.9861 4.59954 10.986 4.15088 10.7095 3.87434L9.29526 5.28856ZM9.29526 3.46192L12.0057 0.751487L13.4199 2.1657L10.7095 4.87613L9.29526 3.46192ZM12.0057 2.1657L11.8348 1.9948L13.249 0.580589L13.4199 0.751487L12.0057 2.1657ZM13.249 1.9948L10.5386 4.70524L9.12436 3.29102L11.8348 0.580589L13.249 1.9948ZM10.5386 4.70524C10.2867 4.95713 9.95443 5.08358 9.62524 5.08358V3.08358C9.4453 3.08358 9.26234 3.15304 9.12436 3.29102L10.5386 4.70524ZM9.62524 5.08358C9.29592 5.08358 8.96384 4.95704 8.71208 4.70541L10.126 3.29085C9.98817 3.15313 9.80533 3.08358 9.62524 3.08358V5.08358ZM8.71191 4.70524C8.20749 4.20082 8.20737 3.38302 8.712 2.87851L10.126 4.2929C10.4028 4.01622 10.4027 3.56756 10.1261 3.29102L8.71191 4.70524ZM8.71191 2.8786L11.4223 0.168166L12.8366 1.58238L10.1261 4.29281L8.71191 2.8786ZM11.4223 1.58238L11.2312 1.39125L12.6454 -0.0229663L12.8366 0.168165L11.4223 1.58238ZM12.5702 1.45921C11.6857 2.1803 10.7867 2.94588 10.097 3.56417C9.75098 3.8743 9.46563 4.14025 9.26346 4.34139C9.16147 4.44286 9.09021 4.51839 9.04594 4.5692C8.97049 4.65579 9.03178 4.60434 9.08628 4.47694L7.24752 3.69021C7.33371 3.48877 7.48073 3.32111 7.53804 3.25533C7.62653 3.15378 7.73505 3.04078 7.85285 2.92358C8.09026 2.68738 8.40451 2.39536 8.76199 2.07492C9.47916 1.43206 10.4025 0.646029 11.3064 -0.0909245L12.5702 1.45921ZM9.1669 4.08358C9.1669 4.64391 8.90111 5.313 8.6105 5.86298C8.29701 6.45625 7.85475 7.09737 7.33025 7.62188L5.91602 6.20769C6.27505 5.84865 6.60468 5.37808 6.84219 4.92859C6.95977 4.70606 7.04676 4.50377 7.10219 4.3391C7.16249 4.15996 7.1669 4.07989 7.1669 4.08358H9.1669ZM7.33024 7.6219C6.56992 8.38222 2.99756 11.3804 1.54546 12.5944L0.262657 11.06C1.7705 9.79943 5.23797 6.88574 5.91603 6.20768L7.33024 7.6219ZM1.54627 12.5938C1.57088 12.5731 1.58362 12.5427 1.58362 12.5162H-0.416379C-0.416379 11.9549 -0.17007 11.4226 0.261854 11.0607L1.54627 12.5938ZM1.58362 12.5162C1.58362 12.4607 1.5398 12.4169 1.48426 12.4169V14.4169C0.43523 14.4169 -0.416379 13.5653 -0.416379 12.5162H1.58362Z" fill="black" mask="url(#path-1-inside-1)"/>
</g>
<defs>
<clipPath id="clip0">
<rect width="14" height="14" fill="white" transform="matrix(-1 0 0 1 14 0)"/>
</clipPath>
</defs>
</svg>
