<svg width="17" height="17" viewBox="0 0 17 17" fill="none" xmlns="http://www.w3.org/2000/svg">
<g clip-path="url(#clip0)">
<path d="M14.1366 4.03584H9.476L11.4206 0.666846L13.1296 1.65325L13.4115 1.16512L11.4584 0.0378021C11.3236 -0.0400181 11.1512 0.00616672 11.0734 0.140952L8.82497 4.03584H2.86343C2.70779 4.03584 2.5816 4.16203 2.5816 4.31767V5.44499C2.5816 5.60063 2.70779 5.72682 2.86343 5.72682H3.18415L4.83933 16.7599C4.85998 16.8979 4.97852 17 5.11806 17H11.882C12.0215 17 12.1401 16.8979 12.1607 16.7599L13.8159 5.72682H14.1366C14.2923 5.72682 14.4184 5.60063 14.4184 5.44499V4.31767C14.4184 4.16203 14.2923 4.03584 14.1366 4.03584ZM11.6393 16.4363H5.36072L3.75429 5.72682H13.2458L11.6393 16.4363ZM13.8548 5.16316H3.14526V4.5995H13.8548V5.16316Z" fill="white"/>
</g>
<defs>
<clipPath id="clip0">
<rect width="17" height="17" fill="white"/>
</clipPath>
</defs>
</svg>
