<svg width="18" height="17" viewBox="0 0 18 17" fill="none" xmlns="http://www.w3.org/2000/svg">
<g clip-path="url(#clip0)">
<path d="M9.02249 5.41698L4.8879 4.37099C4.71946 4.32773 4.54853 4.42281 4.50365 4.58043C4.45881 4.73834 4.55821 4.90094 4.72541 4.94329L8.86 5.98928C8.88729 5.9961 8.91457 5.99934 8.94123 5.99934C9.07987 5.99934 9.20659 5.91195 9.2439 5.77984C9.2894 5.62168 9.18996 5.45903 9.02249 5.41698Z" fill="#666666"/>
<path d="M9.94745 5.85243C9.95906 5.83702 9.96879 5.82015 9.98353 5.8071C9.9691 5.82044 9.95937 5.83702 9.94745 5.85243Z" fill="#666666"/>
<path d="M9.91423 5.89893C9.90702 5.91405 9.90513 5.93092 9.90073 5.9475C9.90513 5.93121 9.90702 5.91434 9.91423 5.89893Z" fill="#666666"/>
<path d="M10.0874 5.74582C10.0648 5.7538 10.0463 5.76714 10.0268 5.7796C10.0463 5.76743 10.0648 5.75409 10.0874 5.74582Z" fill="#666666"/>
<path d="M9.90202 14.5257C9.84618 14.3708 9.9337 14.2026 10.0977 14.1498L10.5127 14.0162V6.23161L10.3019 6.30064C10.1376 6.35454 9.95944 6.2725 9.90294 6.11787C9.8901 6.08263 9.88631 6.04677 9.88759 6.01153C9.88759 6.01478 9.8857 6.01777 9.8857 6.02101V14.0491L3.34663 12.4732V4.42255L3.19356 4.46996L2.71933 4.87284V12.7031C2.71933 12.8385 2.81657 12.9564 2.95552 12.9901L10.1219 14.7172C10.1477 14.7234 10.1737 14.7264 10.1994 14.7264C10.0682 14.7266 9.94624 14.649 9.90202 14.5257Z" fill="#666666"/>
<path d="M10.1987 14.7266C10.2335 14.7266 10.2677 14.7213 10.3004 14.7106H10.3C10.2665 14.7216 10.2323 14.7266 10.1987 14.7266Z" fill="#666666"/>
<path d="M2.85666 3.96932C2.878 3.9554 2.8993 3.94119 2.9238 3.93259C2.89868 3.94115 2.878 3.95511 2.85666 3.96932Z" fill="#666666"/>
<path d="M16.0067 4.06083C16.0029 4.05459 15.9963 4.05106 15.9922 4.04541C16.023 4.08867 16.0446 4.13812 16.0478 4.19293C16.055 4.32445 15.9691 4.44501 15.8373 4.48797L15.5914 4.56855L17.2265 7.26545L12.7431 8.7321L11.49 7.0255C11.3912 6.89161 11.1955 6.85754 11.0534 6.95116C10.911 7.04416 10.8759 7.22904 10.9744 7.36351L12.3629 9.25465C12.4229 9.33581 12.5201 9.38202 12.6208 9.38202C12.655 9.38202 12.6898 9.37699 12.7233 9.36573L15.2473 8.53986V8.12364C15.2473 7.95983 15.3879 7.8274 15.561 7.8274C15.7341 7.8274 15.8747 7.95979 15.8747 8.12364V8.33458L17.7892 7.70834C17.8774 7.67929 17.9476 7.61501 17.9802 7.5321C18.0128 7.44974 18.005 7.35761 17.9586 7.2809L16.0067 4.06083Z" fill="#666666"/>
<path d="M15.9126 3.96667C15.9232 3.97378 15.932 3.98238 15.9414 3.99036C15.9317 3.98234 15.9229 3.97345 15.9126 3.96667Z" fill="#666666"/>
<path d="M15.8119 3.92191C15.8213 3.92427 15.8294 3.9293 15.8386 3.93229C15.8291 3.9293 15.8213 3.92427 15.8119 3.92191Z" fill="#666666"/>
<path d="M15.2476 12.4913L10.5124 14.0163V14.4301C10.5124 14.5216 10.4675 14.6081 10.391 14.6641C10.3634 14.6843 10.3326 14.6997 10.3003 14.7104L15.6623 12.9833C15.7893 12.9424 15.8746 12.8296 15.8746 12.7031V8.33453L15.2473 8.53982V12.4912H15.2476V12.4913Z" fill="#666666"/>
<path d="M10.5123 14.4304V14.0165L10.0974 14.1501C9.93335 14.2028 9.84583 14.3711 9.90167 14.526C9.9462 14.6493 10.0679 14.7269 10.1984 14.7269C10.232 14.7269 10.2662 14.7218 10.2997 14.7109H10.3C10.3323 14.7005 10.3631 14.6851 10.3907 14.6646C10.4675 14.6081 10.5123 14.5216 10.5123 14.4304Z" fill="#666666"/>
<path d="M15.5613 7.82739C15.3881 7.82739 15.2476 7.95979 15.2476 8.12364V8.53986L15.8749 8.33457V8.12364C15.8749 7.95983 15.7344 7.82739 15.5613 7.82739Z" fill="#666666"/>
<path d="M15.9414 3.99063C15.9602 4.00663 15.9775 4.02471 15.9922 4.04544C15.9775 4.02471 15.9609 4.00692 15.9414 3.99063Z" fill="#666666"/>
<path d="M2.85667 3.9693C2.84567 3.97641 2.83251 3.97965 2.82279 3.98796L0.104048 6.29764C-0.00793071 6.39243 -0.0327034 6.54972 0.0453961 6.67118C0.103739 6.76211 0.206611 6.81397 0.313882 6.81397C0.35027 6.81397 0.387274 6.80773 0.423353 6.7956L2.08605 6.21083C2.24854 6.15366 2.331 5.98332 2.2705 5.8299C2.20996 5.67614 2.02929 5.59914 1.86715 5.65541L1.74954 5.69688L2.71938 4.87305V4.208C2.71864 4.10735 2.77544 4.02262 2.85667 3.9693Z" fill="#666666"/>
<path d="M15.8386 3.93228C15.8646 3.94088 15.8897 3.95152 15.9126 3.96665C15.89 3.95182 15.8649 3.94114 15.8386 3.93228Z" fill="#666666"/>
<path d="M3.34602 4.20805V4.42281L8.33501 2.8765L14.6081 4.26344L10.0959 5.74135C10.0927 5.74222 10.0905 5.74492 10.0874 5.74609C10.1222 5.73366 10.1592 5.72506 10.1985 5.72506C10.3716 5.72506 10.5121 5.85746 10.5121 6.0213V6.23191L15.5912 4.56858L15.4619 4.35561C15.376 4.2137 15.428 4.03243 15.5783 3.95127C15.652 3.91188 15.7354 3.90419 15.8117 3.92223C15.8095 3.92164 15.8079 3.92044 15.8057 3.91986L8.39208 2.2808C8.33593 2.26866 8.27728 2.27103 8.22272 2.28761L2.93449 3.92664C2.9304 3.92784 2.92758 3.93108 2.92349 3.93258C2.95768 3.92044 2.99376 3.91184 3.03235 3.91184C3.20579 3.91184 3.34602 4.04424 3.34602 4.20805Z" fill="#666666"/>
<path d="M9.98355 5.80709C9.99609 5.79583 10.0124 5.78872 10.0268 5.77954C10.0124 5.78872 9.99609 5.79583 9.98355 5.80709Z" fill="#666666"/>
<path d="M9.8869 6.0115C9.88752 5.98898 9.89473 5.96854 9.90071 5.94751C9.89473 5.96887 9.88783 5.98927 9.8869 6.0115Z" fill="#666666"/>
<path d="M9.94748 5.85242C9.93587 5.86783 9.9224 5.88175 9.91422 5.89892C9.92271 5.88175 9.93617 5.86783 9.94748 5.85242Z" fill="#666666"/>
<path d="M3.346 4.42253V4.20777C3.346 4.04396 3.20547 3.91153 3.03233 3.91153C2.99374 3.91153 2.95766 3.92013 2.92348 3.93227C2.89901 3.94087 2.87767 3.95508 2.85634 3.969C2.77511 4.02261 2.71866 4.10705 2.71866 4.20777V4.87282L3.19289 4.46995L3.346 4.42253Z" fill="#666666"/>
<path d="M10.1987 5.72476C10.1592 5.72476 10.1222 5.73336 10.0876 5.74579C10.0651 5.7541 10.0462 5.76711 10.0271 5.77957C10.0127 5.78876 9.9967 5.79586 9.98381 5.80712C9.96907 5.82046 9.95934 5.83704 9.94773 5.85246C9.93611 5.86787 9.92296 5.88179 9.91447 5.89896C9.90725 5.91437 9.90536 5.93125 9.90096 5.94754C9.89502 5.96857 9.88811 5.98901 9.88715 6.01153C9.88587 6.04677 9.88935 6.08263 9.90251 6.11787C9.95927 6.2725 10.1374 6.35457 10.3015 6.30063L10.5123 6.23161V6.02101C10.5123 5.85716 10.3718 5.72476 10.1987 5.72476Z" fill="#666666"/>
<path d="M15.5785 3.95095C15.4282 4.03211 15.3762 4.21342 15.4621 4.35532L15.5914 4.5683L15.8373 4.48772C15.969 4.44446 16.0549 4.3242 16.0477 4.19268C16.0446 4.13787 16.0229 4.08871 15.9922 4.04516C15.9775 4.02442 15.9605 4.00635 15.9414 3.99035C15.932 3.98204 15.9229 3.97348 15.9125 3.96666C15.8896 3.95186 15.8645 3.9409 15.8385 3.93229C15.8294 3.92934 15.8216 3.92431 15.8118 3.92191C15.7356 3.90354 15.6522 3.91123 15.5785 3.95095Z" fill="#666666"/>
</g>
<defs>
<clipPath id="clip0">
<rect width="18" height="17" fill="white"/>
</clipPath>
</defs>
</svg>
