<svg width="22" height="18" viewBox="0 0 22 18" fill="none" xmlns="http://www.w3.org/2000/svg">
<g clip-path="url(#clip0)">
<path d="M7.09679 0C7.31941 0.0228426 7.54293 0.0388325 7.76443 0.0685279C8.96842 0.234365 10.0535 0.670203 10.9451 1.53662C11.6008 2.17416 12.0144 2.95492 12.2344 3.84624C12.2386 3.86338 12.2433 3.88074 12.2523 3.91477C12.2972 3.87274 12.3315 3.84053 12.3659 3.80787C13.1064 3.10157 13.8751 2.43091 14.7427 1.88909C15.3798 1.49048 16.051 1.17411 16.7916 1.02952C17.6558 0.860711 18.4819 1.00485 19.2723 1.37216C20.3401 1.86876 21.1574 2.63398 21.6524 3.73226C21.8932 4.26723 21.9787 4.83716 21.9965 5.41896C22.0346 6.67416 21.7018 7.84028 21.1572 8.9518C20.5943 10.101 19.8479 11.1219 19.0225 12.0854C17.9321 13.3597 16.7169 14.5051 15.4826 15.6319C15.0147 16.0586 14.5436 16.4819 14.082 16.9157C13.8912 17.0947 13.6814 17.1441 13.441 17.0774C13.1051 16.9875 12.8102 16.7815 12.6071 16.4947C12.5722 16.445 12.543 16.3913 12.5203 16.3348C12.4386 16.1399 12.4682 16.0074 12.6228 15.8638C13.2388 15.2913 13.8571 14.723 14.4707 14.1467C15.705 12.9856 16.9038 11.7898 17.9491 10.4441C18.5128 9.72335 19.0158 8.95548 19.4527 8.14865C19.8342 7.44053 20.0564 6.67805 20.2052 5.89066C20.3174 5.29424 20.3847 4.69234 20.3142 4.08609C20.2871 3.82552 20.2317 3.5688 20.1491 3.32063C19.906 2.62348 19.3753 2.27398 18.6473 2.29546C18.0607 2.31259 17.5185 2.50378 16.9866 2.73152C15.9253 3.18563 14.9963 3.84944 14.1401 4.61627C13.5824 5.11675 13.0454 5.64213 12.5095 6.16751C12.3183 6.35482 12.1103 6.41261 11.8643 6.34431C11.5242 6.25362 11.2278 6.04082 11.0297 5.74515C10.9262 5.59371 10.8688 5.42787 10.9529 5.22708C10.6446 5.21041 10.6217 5.00025 10.5928 4.75241C10.4215 3.27975 9.84814 2.01129 8.66277 1.1017C7.63157 0.313172 6.49984 0.251269 5.34836 0.803147C3.95473 1.47038 2.9296 2.52 2.33557 3.97827C1.88808 5.07609 1.85307 6.19926 2.16434 7.34208C2.57098 8.83599 3.29607 10.1581 4.23054 11.3697C5.07682 12.4675 6.05325 13.4358 7.09185 14.3422C8.3506 15.4409 9.69172 16.4305 11.0342 17.4182C11.1706 17.5186 11.3065 17.6194 11.4419 17.7209C11.4504 17.7304 11.4579 17.7407 11.4644 17.7517C11.417 17.7745 11.3746 17.8054 11.327 17.8159C11.0683 17.8728 10.8086 17.9246 10.549 17.9778C10.5057 17.9868 10.4619 17.9929 10.4182 18.0007H10.1489C10.0052 17.9534 9.83804 17.9392 9.72134 17.8538C7.9094 16.5289 6.15132 15.138 4.5353 13.5685C3.42893 12.4949 2.39661 11.3528 1.53979 10.0585C0.967076 9.19325 0.489069 8.28 0.214383 7.26807C-0.214926 5.68622 -0.0158683 4.20853 0.966403 2.88503C2.19867 1.22505 3.87596 0.347437 5.87821 0.0685279C6.11093 0.0363198 6.34612 0.0228426 6.57996 0H7.09679Z" fill="white"/>
</g>
<defs>
<clipPath id="clip0">
<rect width="22" height="18" fill="white"/>
</clipPath>
</defs>
</svg>
