<svg width="19" height="25" viewBox="0 0 19 25" fill="none" xmlns="http://www.w3.org/2000/svg">
<path d="M8.958 2.5H8.9286C5.37182 2.5 2.47826 5.46871 2.47826 9.1177C2.47826 11.5096 3.53964 14.6663 5.63291 18.5004C7.18485 21.3428 8.75855 23.5198 8.77431 23.5414C8.81812 23.6018 8.88716 23.6374 8.96032 23.6374C8.9624 23.6374 8.96452 23.6374 8.9666 23.6373C9.04208 23.6352 9.11175 23.5955 9.15362 23.5309C9.16914 23.5068 10.7316 21.0852 12.273 18.1233C14.3535 14.1256 15.4084 11.0956 15.4084 9.1177C15.4083 5.46866 12.5147 2.5 8.958 2.5ZM11.9354 9.27942C11.9354 10.9727 10.5931 12.3503 8.94325 12.3503C7.2934 12.3503 5.95115 10.9727 5.95115 9.27942C5.95115 7.58615 7.2934 6.20858 8.94325 6.20858C10.5931 6.20858 11.9354 7.58615 11.9354 9.27942Z" fill="#5A7889"/>
</svg>
