<svg width="27" height="27" viewBox="0 0 27 27" fill="none" xmlns="http://www.w3.org/2000/svg">
<path d="M10.125 3.375C10.9594 3.375 11.775 3.62243 12.4688 4.08599C13.1626 4.54955 13.7033 5.20843 14.0226 5.9793C14.3419 6.75018 14.4255 7.59843 14.2627 8.41679C14.0999 9.23514 13.6981 9.98685 13.1081 10.5769C12.5181 11.1669 11.7664 11.5687 10.948 11.7314C10.1297 11.8942 9.28143 11.8107 8.51056 11.4914C7.73968 11.1721 7.0808 10.6313 6.61724 9.93756C6.15368 9.24379 5.90625 8.42814 5.90625 7.59375C5.90625 6.47487 6.35073 5.40181 7.1419 4.61064C7.93307 3.81947 9.00612 3.375 10.125 3.375V3.375ZM10.125 1.6875C8.95686 1.6875 7.81494 2.0339 6.84367 2.68288C5.87239 3.33187 5.11537 4.2543 4.66834 5.33353C4.22131 6.41275 4.10435 7.6003 4.33224 8.746C4.56013 9.8917 5.12265 10.9441 5.94865 11.7701C6.77466 12.5961 7.82705 13.1586 8.97275 13.3865C10.1185 13.6144 11.306 13.4974 12.3852 13.0504C13.4645 12.6034 14.3869 11.8464 15.0359 10.8751C15.6849 9.90381 16.0313 8.7619 16.0313 7.59375C16.0313 6.02731 15.409 4.52504 14.3014 3.4174C13.1937 2.30976 11.6914 1.6875 10.125 1.6875V1.6875Z" fill="white"/>
<path d="M18.5625 25.3125H16.875V21.0938C16.875 19.9749 16.4305 18.9018 15.6394 18.1106C14.8482 17.3195 13.7751 16.875 12.6562 16.875H7.59375C6.47487 16.875 5.40181 17.3195 4.61064 18.1106C3.81947 18.9018 3.375 19.9749 3.375 21.0938V25.3125H1.6875V21.0938C1.6875 19.5273 2.30976 18.025 3.4174 16.9174C4.52504 15.8098 6.02732 15.1875 7.59375 15.1875H12.6562C14.2227 15.1875 15.725 15.8098 16.8326 16.9174C17.9402 18.025 18.5625 19.5273 18.5625 21.0938V25.3125Z" fill="white"/>
<path d="M21.0938 13.6519L18.9084 11.4666L17.7188 12.6562L21.0938 16.0312L27 10.125L25.8103 8.9353L21.0938 13.6519Z" fill="white"/>
</svg>
