<svg width="19" height="18" viewBox="0 0 19 18" fill="none" xmlns="http://www.w3.org/2000/svg">
<g clip-path="url(#clip0)">
<path d="M18.1039 6.17293L6.87349 3.28962C6.69531 3.24388 6.50621 3.29419 6.37441 3.42237C6.24261 3.55055 6.18717 3.73807 6.22816 3.91723L7.95451 11.4661H7.27856L5.21298 2.43377C5.167 2.23271 5.00785 2.07697 4.8057 2.03517L1.13422 1.27663C0.849137 1.21775 0.569996 1.40095 0.511039 1.68589C0.452047 1.97083 0.635457 2.24959 0.920645 2.30847L4.26021 2.99842L6.34396 12.1103C6.39874 12.3499 6.61206 12.5198 6.85805 12.5198C7.36065 12.5198 16.8101 12.5198 17.2343 12.5198C17.5013 12.5198 17.7212 12.3199 17.7566 12.0654L18.4949 6.75568C18.5318 6.49032 18.3636 6.23958 18.1039 6.17293ZM16.7752 11.4661H9.03634L7.44907 4.52525L17.3856 7.07637L16.7752 11.4661Z" fill="white"/>
<path d="M10.578 6.68951C10.2867 6.68951 10.0506 6.92538 10.0506 7.21633V9.5344C10.0506 9.82535 10.2867 10.0612 10.578 10.0612C10.8692 10.0612 11.1053 9.82535 11.1053 9.5344V7.21633C11.1053 6.92538 10.8692 6.68951 10.578 6.68951Z" fill="white"/>
<path d="M15.0917 7.95389C14.8004 7.95389 14.5643 8.18975 14.5643 8.4807V9.53441C14.5643 9.82536 14.8004 10.0612 15.0917 10.0612C15.3829 10.0612 15.619 9.82536 15.619 9.53441V8.48074C15.619 8.18979 15.3829 7.95389 15.0917 7.95389Z" fill="white"/>
<path d="M9.40953 13.2222C8.44027 13.2222 7.65171 14.01 7.65171 14.9783C7.65171 15.9466 8.44027 16.7344 9.40953 16.7344C10.3788 16.7344 11.1673 15.9466 11.1673 14.9783C11.1673 14.01 10.3788 13.2222 9.40953 13.2222ZM9.40953 15.6807C9.02182 15.6807 8.7064 15.3656 8.7064 14.9783C8.7064 14.591 9.02182 14.2758 9.40953 14.2758C9.79723 14.2758 10.1127 14.5909 10.1127 14.9783C10.1127 15.3656 9.79723 15.6807 9.40953 15.6807Z" fill="white"/>
<path d="M14.6829 13.2222C13.7137 13.2222 12.9251 14.01 12.9251 14.9783C12.9251 15.9466 13.7137 16.7344 14.6829 16.7344C15.6522 16.7344 16.4408 15.9466 16.4408 14.9783C16.4407 14.01 15.6522 13.2222 14.6829 13.2222ZM14.6829 15.6807C14.2952 15.6807 13.9798 15.3656 13.9798 14.9783C13.9798 14.591 14.2952 14.2758 14.6829 14.2758C15.0706 14.2758 15.3861 14.5909 15.3861 14.9783C15.3861 15.3656 15.0706 15.6807 14.6829 15.6807Z" fill="white"/>
<path d="M12.8348 7.39194C12.5436 7.39194 12.3075 7.6278 12.3075 7.91875V9.5344C12.3075 9.82535 12.5436 10.0612 12.8348 10.0612C13.126 10.0612 13.3622 9.82535 13.3622 9.5344V7.91879C13.3622 7.6278 13.1261 7.39194 12.8348 7.39194Z" fill="white"/>
</g>
<defs>
<clipPath id="clip0">
<rect width="18" height="18" fill="white" transform="translate(0.5)"/>
</clipPath>
</defs>
</svg>
