<svg width="18" height="18" viewBox="0 0 18 18" fill="none" xmlns="http://www.w3.org/2000/svg">
<path d="M17.6039 6.17293L6.37348 3.28962C6.19531 3.24388 6.0062 3.29419 5.8744 3.42237C5.7426 3.55055 5.68716 3.73807 5.72815 3.91723L7.4545 11.4661H6.77855L4.71298 2.43377C4.667 2.23271 4.50784 2.07697 4.30569 2.03517L0.634216 1.27663C0.349134 1.21775 0.0699924 1.40095 0.0110353 1.68589C-0.047957 1.97083 0.135453 2.24959 0.420641 2.30847L3.76021 2.99842L5.84396 12.1103C5.89873 12.3499 6.11206 12.5198 6.35805 12.5198C6.86064 12.5198 16.3101 12.5198 16.7343 12.5198C17.0013 12.5198 17.2212 12.3199 17.2566 12.0654L17.9949 6.75568C18.0318 6.49032 17.8636 6.23958 17.6039 6.17293ZM16.2752 11.4661H8.53633L6.94906 4.52525L16.8856 7.07637L16.2752 11.4661Z" fill="black"/>
<path d="M10.078 6.68951C9.78675 6.68951 9.55064 6.92538 9.55064 7.21633V9.5344C9.55064 9.82535 9.78675 10.0612 10.078 10.0612C10.3692 10.0612 10.6053 9.82535 10.6053 9.5344V7.21633C10.6053 6.92538 10.3692 6.68951 10.078 6.68951Z" fill="black"/>
<path d="M14.5917 7.95389C14.3004 7.95389 14.0643 8.18975 14.0643 8.4807V9.53441C14.0643 9.82536 14.3004 10.0612 14.5917 10.0612C14.8829 10.0612 15.119 9.82536 15.119 9.53441V8.48074C15.119 8.18979 14.8829 7.95389 14.5917 7.95389Z" fill="black"/>
<path d="M8.90953 13.2222C7.94027 13.2222 7.15171 14.01 7.15171 14.9783C7.15171 15.9466 7.94027 16.7344 8.90953 16.7344C9.87879 16.7344 10.6673 15.9466 10.6673 14.9783C10.6673 14.01 9.87879 13.2222 8.90953 13.2222ZM8.90953 15.6807C8.52182 15.6807 8.2064 15.3656 8.2064 14.9783C8.2064 14.591 8.52182 14.2758 8.90953 14.2758C9.29723 14.2758 9.61265 14.5909 9.61265 14.9783C9.61265 15.3656 9.29723 15.6807 8.90953 15.6807Z" fill="black"/>
<path d="M14.1829 13.2222C13.2137 13.2222 12.4251 14.01 12.4251 14.9783C12.4251 15.9466 13.2137 16.7344 14.1829 16.7344C15.1522 16.7344 15.9408 15.9466 15.9408 14.9783C15.9407 14.01 15.1522 13.2222 14.1829 13.2222ZM14.1829 15.6807C13.7952 15.6807 13.4798 15.3656 13.4798 14.9783C13.4798 14.591 13.7952 14.2758 14.1829 14.2758C14.5706 14.2758 14.8861 14.5909 14.8861 14.9783C14.8861 15.3656 14.5706 15.6807 14.1829 15.6807Z" fill="black"/>
<path d="M12.3348 7.39194C12.0436 7.39194 11.8075 7.6278 11.8075 7.91875V9.5344C11.8075 9.82535 12.0436 10.0612 12.3348 10.0612C12.626 10.0612 12.8622 9.82535 12.8622 9.5344V7.91879C12.8622 7.6278 12.6261 7.39194 12.3348 7.39194Z" fill="black"/>
</svg>
