<svg width="27" height="27" viewBox="0 0 27 27" fill="none" xmlns="http://www.w3.org/2000/svg">
<path d="M13.5 4.5C15.6712 4.5 19.125 6.075 19.125 10.2937C19.125 12.7237 17.19 15.5475 13.5 18.5287C9.80997 15.5475 7.87497 12.7125 7.87497 10.2937C7.87497 6.075 11.3287 4.5 13.5 4.5ZM13.5 2.25C9.82122 2.25 5.62497 5.0175 5.62497 10.2937C5.62497 13.8037 8.24622 17.505 13.5 21.375C18.7537 17.505 21.375 13.8037 21.375 10.2937C21.375 5.0175 17.1787 2.25 13.5 2.25Z" fill="#FF7235"/>
<path d="M13.5 7.875C12.2625 7.875 11.25 8.8875 11.25 10.125C11.25 11.3625 12.2625 12.375 13.5 12.375C14.0967 12.375 14.669 12.1379 15.091 11.716C15.5129 11.294 15.75 10.7217 15.75 10.125C15.75 9.52826 15.5129 8.95597 15.091 8.53401C14.669 8.11205 14.0967 7.875 13.5 7.875V7.875ZM5.62497 22.5H21.375V24.75H5.62497V22.5Z" fill="#FF7235"/>
</svg>
