<svg width="151" height="23" viewBox="0 0 151 23" fill="none" xmlns="http://www.w3.org/2000/svg">
<circle cx="139.5" cy="11.5" r="8.5" stroke="#F78720" stroke-width="6"/>
<path d="M3.654 13.624H8.46V16H1.17V3.4H3.654V13.624ZM17.2554 14.884C16.3314 15.796 15.2034 16.252 13.8714 16.252C12.5394 16.252 11.4114 15.796 10.4874 14.884C9.57539 13.96 9.11939 12.832 9.11939 11.5C9.11939 10.168 9.57539 9.046 10.4874 8.134C11.4114 7.21 12.5394 6.748 13.8714 6.748C15.2034 6.748 16.3314 7.21 17.2554 8.134C18.1794 9.046 18.6414 10.168 18.6414 11.5C18.6414 12.832 18.1794 13.96 17.2554 14.884ZM12.1254 13.282C12.5934 13.75 13.1754 13.984 13.8714 13.984C14.5674 13.984 15.1494 13.75 15.6174 13.282C16.0854 12.814 16.3194 12.22 16.3194 11.5C16.3194 10.78 16.0854 10.186 15.6174 9.718C15.1494 9.25 14.5674 9.016 13.8714 9.016C13.1754 9.016 12.5934 9.25 12.1254 9.718C11.6694 10.186 11.4414 10.78 11.4414 11.5C11.4414 12.22 11.6694 12.814 12.1254 13.282ZM24.5589 16.252C23.2029 16.252 22.0689 15.796 21.1569 14.884C20.2569 13.972 19.8069 12.844 19.8069 11.5C19.8069 10.156 20.2569 9.028 21.1569 8.116C22.0689 7.204 23.2029 6.748 24.5589 6.748C25.4349 6.748 26.2329 6.958 26.9529 7.378C27.6729 7.798 28.2189 8.362 28.5909 9.07L26.5929 10.24C26.4129 9.868 26.1369 9.574 25.7649 9.358C25.4049 9.142 24.9969 9.034 24.5409 9.034C23.8449 9.034 23.2689 9.268 22.8129 9.736C22.3569 10.192 22.1289 10.78 22.1289 11.5C22.1289 12.208 22.3569 12.796 22.8129 13.264C23.2689 13.72 23.8449 13.948 24.5409 13.948C25.0089 13.948 25.4229 13.846 25.7829 13.642C26.1549 13.426 26.4309 13.132 26.6109 12.76L28.6269 13.912C28.2309 14.62 27.6729 15.19 26.9529 15.622C26.2329 16.042 25.4349 16.252 24.5589 16.252ZM36.5543 7H38.8763V16H36.5543V14.938C35.8583 15.814 34.8803 16.252 33.6203 16.252C32.4203 16.252 31.3883 15.796 30.5243 14.884C29.6723 13.96 29.2463 12.832 29.2463 11.5C29.2463 10.168 29.6723 9.046 30.5243 8.134C31.3883 7.21 32.4203 6.748 33.6203 6.748C34.8803 6.748 35.8583 7.186 36.5543 8.062V7ZM32.2703 13.336C32.7383 13.804 33.3323 14.038 34.0523 14.038C34.7723 14.038 35.3663 13.804 35.8343 13.336C36.3143 12.856 36.5543 12.244 36.5543 11.5C36.5543 10.756 36.3143 10.15 35.8343 9.682C35.3663 9.202 34.7723 8.962 34.0523 8.962C33.3323 8.962 32.7383 9.202 32.2703 9.682C31.8023 10.15 31.5683 10.756 31.5683 11.5C31.5683 12.244 31.8023 12.856 32.2703 13.336ZM40.9819 16V2.86H43.3039V16H40.9819Z" fill="#F78720"/>
<path d="M47.5712 9.556C47.5712 9.796 47.7272 9.994 48.0392 10.15C48.3632 10.294 48.7532 10.426 49.2092 10.546C49.6652 10.654 50.1212 10.798 50.5772 10.978C51.0332 11.146 51.4172 11.434 51.7292 11.842C52.0532 12.25 52.2152 12.76 52.2152 13.372C52.2152 14.296 51.8672 15.01 51.1712 15.514C50.4872 16.006 49.6292 16.252 48.5972 16.252C46.7492 16.252 45.4892 15.538 44.8172 14.11L46.8332 12.976C47.0972 13.756 47.6852 14.146 48.5972 14.146C49.4252 14.146 49.8392 13.888 49.8392 13.372C49.8392 13.132 49.6772 12.94 49.3532 12.796C49.0412 12.64 48.6572 12.502 48.2012 12.382C47.7452 12.262 47.2892 12.112 46.8332 11.932C46.3772 11.752 45.9872 11.47 45.6632 11.086C45.3512 10.69 45.1952 10.198 45.1952 9.61C45.1952 8.722 45.5192 8.026 46.1672 7.522C46.8272 7.006 47.6432 6.748 48.6152 6.748C49.3472 6.748 50.0132 6.916 50.6132 7.252C51.2132 7.576 51.6872 8.044 52.0352 8.656L50.0552 9.736C49.7672 9.124 49.2872 8.818 48.6152 8.818C48.3152 8.818 48.0632 8.884 47.8592 9.016C47.6672 9.148 47.5712 9.328 47.5712 9.556ZM58.7125 6.748C59.6965 6.748 60.5065 7.078 61.1425 7.738C61.7905 8.398 62.1145 9.31 62.1145 10.474V16H59.7925V10.762C59.7925 10.162 59.6305 9.706 59.3065 9.394C58.9825 9.07 58.5505 8.908 58.0105 8.908C57.4105 8.908 56.9305 9.094 56.5705 9.466C56.2105 9.838 56.0305 10.396 56.0305 11.14V16H53.7085V3.4H56.0305V8.008C56.5945 7.168 57.4885 6.748 58.7125 6.748ZM71.7652 14.884C70.8412 15.796 69.7132 16.252 68.3812 16.252C67.0492 16.252 65.9212 15.796 64.9972 14.884C64.0852 13.96 63.6292 12.832 63.6292 11.5C63.6292 10.168 64.0852 9.046 64.9972 8.134C65.9212 7.21 67.0492 6.748 68.3812 6.748C69.7132 6.748 70.8412 7.21 71.7652 8.134C72.6892 9.046 73.1512 10.168 73.1512 11.5C73.1512 12.832 72.6892 13.96 71.7652 14.884ZM66.6352 13.282C67.1032 13.75 67.6852 13.984 68.3812 13.984C69.0772 13.984 69.6592 13.75 70.1272 13.282C70.5952 12.814 70.8292 12.22 70.8292 11.5C70.8292 10.78 70.5952 10.186 70.1272 9.718C69.6592 9.25 69.0772 9.016 68.3812 9.016C67.6852 9.016 67.1032 9.25 66.6352 9.718C66.1792 10.186 65.9512 10.78 65.9512 11.5C65.9512 12.22 66.1792 12.814 66.6352 13.282ZM80.0227 6.748C81.2347 6.748 82.2667 7.21 83.1187 8.134C83.9827 9.046 84.4147 10.168 84.4147 11.5C84.4147 12.832 83.9827 13.96 83.1187 14.884C82.2667 15.796 81.2347 16.252 80.0227 16.252C78.7627 16.252 77.7907 15.814 77.1067 14.938V19.6H74.7847V7H77.1067V8.062C77.7907 7.186 78.7627 6.748 80.0227 6.748ZM77.8087 13.336C78.2767 13.804 78.8707 14.038 79.5907 14.038C80.3107 14.038 80.9047 13.804 81.3727 13.336C81.8527 12.856 82.0927 12.244 82.0927 11.5C82.0927 10.756 81.8527 10.15 81.3727 9.682C80.9047 9.202 80.3107 8.962 79.5907 8.962C78.8707 8.962 78.2767 9.202 77.8087 9.682C77.3407 10.15 77.1067 10.756 77.1067 11.5C77.1067 12.244 77.3407 12.856 77.8087 13.336ZM91.2902 6.748C92.5022 6.748 93.5342 7.21 94.3862 8.134C95.2502 9.046 95.6822 10.168 95.6822 11.5C95.6822 12.832 95.2502 13.96 94.3862 14.884C93.5342 15.796 92.5022 16.252 91.2902 16.252C90.0302 16.252 89.0582 15.814 88.3742 14.938V19.6H86.0522V7H88.3742V8.062C89.0582 7.186 90.0302 6.748 91.2902 6.748ZM89.0762 13.336C89.5442 13.804 90.1382 14.038 90.8582 14.038C91.5782 14.038 92.1722 13.804 92.6402 13.336C93.1202 12.856 93.3602 12.244 93.3602 11.5C93.3602 10.756 93.1202 10.15 92.6402 9.682C92.1722 9.202 91.5782 8.962 90.8582 8.962C90.1382 8.962 89.5442 9.202 89.0762 9.682C88.6082 10.15 88.3742 10.756 88.3742 11.5C88.3742 12.244 88.6082 12.856 89.0762 13.336ZM98.4718 5.92C98.0878 5.92 97.7518 5.782 97.4638 5.506C97.1878 5.218 97.0498 4.882 97.0498 4.498C97.0498 4.114 97.1878 3.778 97.4638 3.49C97.7518 3.202 98.0878 3.058 98.4718 3.058C98.8678 3.058 99.2038 3.202 99.4798 3.49C99.7678 3.778 99.9118 4.114 99.9118 4.498C99.9118 4.882 99.7678 5.218 99.4798 5.506C99.2038 5.782 98.8678 5.92 98.4718 5.92ZM97.3198 16V7H99.6418V16H97.3198ZM106.771 6.748C107.755 6.748 108.565 7.078 109.201 7.738C109.849 8.398 110.173 9.31 110.173 10.474V16H107.851V10.762C107.851 10.162 107.689 9.706 107.365 9.394C107.041 9.07 106.609 8.908 106.069 8.908C105.469 8.908 104.989 9.094 104.629 9.466C104.269 9.838 104.089 10.396 104.089 11.14V16H101.767V7H104.089V8.008C104.653 7.168 105.547 6.748 106.771 6.748ZM119.05 7H121.318V15.568C121.318 16.96 120.856 18.022 119.932 18.754C119.02 19.486 117.916 19.852 116.62 19.852C115.648 19.852 114.79 19.666 114.046 19.294C113.314 18.922 112.75 18.376 112.354 17.656L114.334 16.522C114.79 17.362 115.576 17.782 116.692 17.782C117.424 17.782 118 17.59 118.42 17.206C118.84 16.822 119.05 16.276 119.05 15.568V14.596C118.366 15.508 117.406 15.964 116.17 15.964C114.898 15.964 113.83 15.52 112.966 14.632C112.114 13.732 111.688 12.64 111.688 11.356C111.688 10.084 112.12 8.998 112.984 8.098C113.848 7.198 114.91 6.748 116.17 6.748C117.406 6.748 118.366 7.204 119.05 8.116V7ZM114.712 13.138C115.192 13.594 115.798 13.822 116.53 13.822C117.262 13.822 117.862 13.594 118.33 13.138C118.81 12.67 119.05 12.076 119.05 11.356C119.05 10.648 118.81 10.066 118.33 9.61C117.862 9.142 117.262 8.908 116.53 8.908C115.798 8.908 115.192 9.142 114.712 9.61C114.244 10.066 114.01 10.648 114.01 11.356C114.01 12.076 114.244 12.67 114.712 13.138Z" fill="black"/>
</svg>
