<svg width="13" height="11" viewBox="0 0 13 11" fill="none" xmlns="http://www.w3.org/2000/svg">
<g clip-path="url(#clip0)">
<path d="M8.84722 11C9.12809 11 9.36481 10.8873 9.55741 10.6618L12.6991 7.45518C12.8997 7.24641 13 6.98754 13 6.67857C13 6.36125 12.8997 6.09821 12.6991 5.88944L9.55741 2.68282C9.37284 2.4657 9.13611 2.35714 8.84722 2.35714C8.55833 2.35714 8.31559 2.45735 8.11898 2.65776C7.92238 2.85818 7.82407 3.1087 7.82407 3.40932C7.82407 3.70994 7.92438 3.96463 8.125 4.1734L9.47315 5.58882L1.01111 5.58882C0.722222 5.58882 0.481481 5.69529 0.288889 5.90823C0.0962961 6.12117 -1.96634e-07 6.37795 -1.83845e-07 6.67857C-1.71056e-07 6.97919 0.0962961 7.23597 0.288889 7.44891C0.481481 7.66185 0.722222 7.76832 1.01111 7.76832L9.47315 7.76832L8.125 9.18375C7.92438 9.39251 7.82407 9.63885 7.82407 9.92277C7.82407 10.2234 7.92238 10.4781 8.11898 10.6869C8.31559 10.8956 8.55833 11 8.84722 11Z" fill="#FF7235"/>
</g>
<defs>
<clipPath id="clip0">
<rect width="13" height="11" fill="white"/>
</clipPath>
</defs>
</svg>
