<svg width="29" height="29" viewBox="0 0 29 29" fill="none" xmlns="http://www.w3.org/2000/svg">
<path fill-rule="evenodd" clip-rule="evenodd" d="M29 14.5C29 18.3456 27.4723 22.0338 24.753 24.753C22.0338 27.4723 18.3456 29 14.5 29C10.6544 29 6.96623 27.4723 4.24695 24.753C1.52767 22.0338 0 18.3456 0 14.5C0 10.6544 1.52767 6.96623 4.24695 4.24695C6.96623 1.52767 10.6544 0 14.5 0C18.3456 0 22.0338 1.52767 24.753 4.24695C27.4723 6.96623 29 10.6544 29 14.5ZM21.4854 8.79788C21.6555 8.62771 21.7511 8.39691 21.7511 8.15625C21.7511 7.91559 21.6555 7.68479 21.4854 7.51462C21.3152 7.34446 21.0844 7.24886 20.8438 7.24886C20.6031 7.24886 20.3723 7.34446 20.2021 7.51462L14.5 13.2186L8.79788 7.51462C8.71362 7.43037 8.61359 7.36353 8.5035 7.31793C8.3934 7.27233 8.27541 7.24886 8.15625 7.24886C8.03709 7.24886 7.9191 7.27233 7.809 7.31793C7.69891 7.36353 7.59888 7.43037 7.51462 7.51462C7.43037 7.59888 7.36353 7.69891 7.31793 7.809C7.27233 7.9191 7.24886 8.03709 7.24886 8.15625C7.24886 8.27541 7.27233 8.3934 7.31793 8.5035C7.36353 8.61359 7.43037 8.71362 7.51462 8.79788L13.2186 14.5L7.51462 20.2021C7.34446 20.3723 7.24886 20.6031 7.24886 20.8438C7.24886 21.0844 7.34446 21.3152 7.51462 21.4854C7.68479 21.6555 7.91559 21.7511 8.15625 21.7511C8.39691 21.7511 8.62771 21.6555 8.79788 21.4854L14.5 15.7814L20.2021 21.4854C20.2864 21.5696 20.3864 21.6365 20.4965 21.6821C20.6066 21.7277 20.7246 21.7511 20.8438 21.7511C20.9629 21.7511 21.0809 21.7277 21.191 21.6821C21.3011 21.6365 21.4011 21.5696 21.4854 21.4854C21.5696 21.4011 21.6365 21.3011 21.6821 21.191C21.7277 21.0809 21.7511 20.9629 21.7511 20.8438C21.7511 20.7246 21.7277 20.6066 21.6821 20.4965C21.6365 20.3864 21.5696 20.2864 21.4854 20.2021L15.7814 14.5L21.4854 8.79788Z" fill="#666666"/>
</svg>
