<svg width="203" height="44" viewBox="0 0 203 44" fill="none" xmlns="http://www.w3.org/2000/svg">
<g clip-path="url(#clip0)">
<path d="M32 28.75C32 29.8687 31.7313 30.9062 31.1938 31.8563C30.6562 32.8063 29.9375 33.55 29.0312 34.0688C29.0562 34.2375 29.0688 34.5 29.0688 34.8563C29.0688 36.55 28.5 37.9875 27.375 39.175C26.2437 40.3687 24.8813 40.9625 23.2875 40.9625C22.575 40.9625 21.8937 40.8313 21.25 40.5688C20.75 41.5938 20.0312 42.4187 19.0875 43.05C18.15 43.6875 17.1187 44 16 44C14.8562 44 13.8188 43.6938 12.8938 43.0688C11.9625 42.45 11.25 41.6187 10.75 40.5688C10.1062 40.8313 9.43125 40.9625 8.7125 40.9625C7.11875 40.9625 5.75 40.3687 4.60625 39.175C3.4625 37.9875 2.89375 36.5438 2.89375 34.8563C2.89375 34.6688 2.91875 34.4062 2.9625 34.0688C2.05625 33.5438 1.3375 32.8063 0.8 31.8563C0.26875 30.9062 0 29.8687 0 28.75C0 27.5625 0.3 26.4688 0.89375 25.4812C1.4875 24.4937 2.2875 23.7625 3.2875 23.2875C3.025 22.575 2.89375 21.8562 2.89375 21.1438C2.89375 19.4563 3.4625 18.0125 4.60625 16.825C5.75 15.6375 7.11875 15.0375 8.7125 15.0375C9.425 15.0375 10.1062 15.1688 10.75 15.4313C11.25 14.4062 11.9688 13.5812 12.9125 12.95C13.85 12.3187 14.8813 12 16 12C17.1187 12 18.15 12.3188 19.0875 12.9438C20.025 13.575 20.75 14.4 21.25 15.425C21.8937 15.1625 22.5688 15.0312 23.2875 15.0312C24.8813 15.0312 26.2437 15.625 27.375 16.8187C28.5063 18.0125 29.0688 19.45 29.0688 21.1375C29.0688 21.925 28.95 22.6375 28.7125 23.2812C29.7125 23.7563 30.5125 24.4875 31.1063 25.475C31.7 26.4688 32 27.5625 32 28.75ZM15.3188 33.5688L21.925 23.675C22.0938 23.4125 22.1437 23.125 22.0875 22.8188C22.025 22.5125 21.8688 22.2688 21.6063 22.1062C21.3438 21.9375 21.0562 21.8813 20.75 21.925C20.4375 21.975 20.1875 22.125 20 22.3875L14.1812 31.1375L11.5 28.4625C11.2625 28.225 10.9875 28.1125 10.6812 28.125C10.3687 28.1375 10.1 28.25 9.8625 28.4625C9.65 28.675 9.54375 28.9437 9.54375 29.2687C9.54375 29.5875 9.65 29.8563 9.8625 30.075L13.5437 33.7563L13.725 33.9C13.9375 34.0437 14.1562 34.1125 14.3687 34.1125C14.7875 34.1062 15.1063 33.9312 15.3188 33.5688Z" fill="#0FD948"/>
</g>
<path d="M43.306 25.982H45.43V24.272C45.43 23.396 45.67 22.724 46.15 22.256C46.63 21.776 47.32 21.536 48.22 21.536C48.46 21.536 48.676 21.548 48.868 21.572C49.06 21.596 49.246 21.638 49.426 21.698V22.886C49.222 22.826 49.036 22.784 48.868 22.76C48.7 22.724 48.514 22.706 48.31 22.706C47.782 22.706 47.386 22.838 47.122 23.102C46.87 23.354 46.744 23.756 46.744 24.308V25.982H49.426V27.116H46.744V35H45.43V27.116H43.306V25.982ZM57.9878 34.046C57.4838 34.418 56.9558 34.7 56.4038 34.892C55.8638 35.072 55.2698 35.162 54.6218 35.162C53.9738 35.162 53.3618 35.042 52.7858 34.802C52.2218 34.562 51.7298 34.232 51.3098 33.812C50.9018 33.392 50.5778 32.9 50.3378 32.336C50.0978 31.76 49.9778 31.142 49.9778 30.482C49.9778 29.834 50.0918 29.228 50.3198 28.664C50.5598 28.1 50.8778 27.608 51.2738 27.188C51.6698 26.768 52.1378 26.438 52.6778 26.198C53.2298 25.958 53.8118 25.838 54.4238 25.838C55.0238 25.838 55.5818 25.958 56.0978 26.198C56.6258 26.438 57.0758 26.768 57.4478 27.188C57.8318 27.608 58.1318 28.1 58.3478 28.664C58.5758 29.228 58.6898 29.834 58.6898 30.482V30.896H51.2918C51.3878 31.784 51.7538 32.522 52.3898 33.11C53.0258 33.698 53.7878 33.992 54.6758 33.992C55.1438 33.992 55.5998 33.92 56.0438 33.776C56.4878 33.632 56.8598 33.428 57.1598 33.164L57.9878 34.046ZM54.3878 27.008C53.6078 27.008 52.9298 27.272 52.3538 27.8C51.7898 28.328 51.4478 29.006 51.3278 29.834H57.3578C57.2378 29.042 56.8958 28.376 56.3318 27.836C55.7798 27.284 55.1318 27.008 54.3878 27.008ZM63.2553 35.162C62.2713 35.162 61.4673 34.91 60.8433 34.406C60.2313 33.902 59.9253 33.248 59.9253 32.444C59.9253 31.604 60.2493 30.938 60.8973 30.446C61.5453 29.942 62.4213 29.69 63.5253 29.69C64.0053 29.69 64.4673 29.744 64.9113 29.852C65.3673 29.96 65.7873 30.11 66.1713 30.302V29.114C66.1713 28.394 65.9673 27.854 65.5593 27.494C65.1513 27.122 64.5573 26.936 63.7773 26.936C63.3333 26.936 62.8833 27.002 62.4273 27.134C61.9833 27.254 61.4913 27.452 60.9513 27.728L60.4473 26.702C61.0953 26.39 61.6953 26.162 62.2473 26.018C62.7993 25.874 63.3513 25.802 63.9033 25.802C65.0433 25.802 65.9193 26.072 66.5313 26.612C67.1553 27.152 67.4673 27.926 67.4673 28.934V35H66.1713V34.118C65.7633 34.466 65.3133 34.73 64.8213 34.91C64.3413 35.078 63.8193 35.162 63.2553 35.162ZM61.2033 32.408C61.2033 32.912 61.4133 33.326 61.8333 33.65C62.2653 33.962 62.8173 34.118 63.4893 34.118C64.0293 34.118 64.5213 34.034 64.9653 33.866C65.4093 33.698 65.8113 33.434 66.1713 33.074V31.382C65.7993 31.13 65.3973 30.95 64.9653 30.842C64.5453 30.722 64.0773 30.662 63.5613 30.662C62.8413 30.662 62.2653 30.824 61.8333 31.148C61.4133 31.46 61.2033 31.88 61.2033 32.408ZM70.457 32.984V27.116H68.513V25.982H70.457V23.696L71.771 23.354V25.982H74.489V27.116H71.771V32.642C71.771 33.122 71.879 33.47 72.095 33.686C72.311 33.89 72.665 33.992 73.157 33.992C73.409 33.992 73.631 33.974 73.823 33.938C74.027 33.902 74.243 33.842 74.471 33.758V34.928C74.243 35.012 73.985 35.072 73.697 35.108C73.421 35.144 73.151 35.162 72.887 35.162C72.107 35.162 71.507 34.976 71.087 34.604C70.667 34.232 70.457 33.692 70.457 32.984ZM77.1933 25.982V31.418C77.1933 32.21 77.4213 32.84 77.8773 33.308C78.3333 33.776 78.9453 34.01 79.7133 34.01C80.2533 34.01 80.7333 33.89 81.1533 33.65C81.5853 33.398 81.9333 33.05 82.1973 32.606V25.982H83.5293V35H82.1973V33.956C81.8493 34.364 81.4353 34.67 80.9553 34.874C80.4873 35.078 79.9593 35.18 79.3713 35.18C78.3393 35.18 77.4993 34.856 76.8513 34.208C76.2033 33.56 75.8793 32.72 75.8793 31.688V25.982H77.1933ZM85.7942 35V25.982H87.1262V27.26C87.3902 26.792 87.7382 26.432 88.1702 26.18C88.6022 25.916 89.0942 25.784 89.6462 25.784C89.8142 25.784 89.9642 25.796 90.0962 25.82C90.2282 25.832 90.3602 25.862 90.4922 25.91V27.134C90.3362 27.086 90.1802 27.05 90.0242 27.026C89.8682 26.99 89.7122 26.972 89.5562 26.972C89.0042 26.972 88.5182 27.134 88.0982 27.458C87.6782 27.77 87.3542 28.226 87.1262 28.826V35H85.7942ZM98.9624 34.046C98.4584 34.418 97.9304 34.7 97.3784 34.892C96.8384 35.072 96.2444 35.162 95.5964 35.162C94.9484 35.162 94.3364 35.042 93.7604 34.802C93.1964 34.562 92.7044 34.232 92.2844 33.812C91.8764 33.392 91.5524 32.9 91.3124 32.336C91.0724 31.76 90.9524 31.142 90.9524 30.482C90.9524 29.834 91.0664 29.228 91.2944 28.664C91.5344 28.1 91.8524 27.608 92.2484 27.188C92.6444 26.768 93.1124 26.438 93.6524 26.198C94.2044 25.958 94.7864 25.838 95.3984 25.838C95.9984 25.838 96.5564 25.958 97.0724 26.198C97.6004 26.438 98.0504 26.768 98.4224 27.188C98.8064 27.608 99.1064 28.1 99.3224 28.664C99.5504 29.228 99.6644 29.834 99.6644 30.482V30.896H92.2664C92.3624 31.784 92.7284 32.522 93.3644 33.11C94.0004 33.698 94.7624 33.992 95.6504 33.992C96.1184 33.992 96.5744 33.92 97.0184 33.776C97.4624 33.632 97.8344 33.428 98.1344 33.164L98.9624 34.046ZM95.3624 27.008C94.5824 27.008 93.9044 27.272 93.3284 27.8C92.7644 28.328 92.4224 29.006 92.3024 29.834H98.3324C98.2124 29.042 97.8704 28.376 97.3064 27.836C96.7544 27.284 96.1064 27.008 95.3624 27.008ZM108.582 35V34.046C108.198 34.406 107.754 34.682 107.25 34.874C106.758 35.054 106.23 35.144 105.666 35.144C105.03 35.144 104.436 35.024 103.884 34.784C103.332 34.544 102.852 34.22 102.444 33.812C102.036 33.392 101.712 32.894 101.472 32.318C101.244 31.742 101.13 31.13 101.13 30.482C101.13 29.834 101.244 29.228 101.472 28.664C101.712 28.088 102.036 27.596 102.444 27.188C102.852 26.768 103.332 26.438 103.884 26.198C104.448 25.958 105.048 25.838 105.684 25.838C106.2 25.838 106.704 25.928 107.196 26.108C107.7 26.276 108.156 26.528 108.564 26.864V22.4L109.896 22.094V35H108.582ZM102.444 30.464C102.444 30.956 102.528 31.418 102.696 31.85C102.876 32.282 103.116 32.654 103.416 32.966C103.716 33.278 104.07 33.524 104.478 33.704C104.886 33.884 105.324 33.974 105.792 33.974C106.356 33.974 106.878 33.866 107.358 33.65C107.85 33.422 108.252 33.11 108.564 32.714V28.25C108.252 27.866 107.85 27.566 107.358 27.35C106.866 27.122 106.344 27.008 105.792 27.008C104.856 27.008 104.064 27.338 103.416 27.998C102.768 28.658 102.444 29.48 102.444 30.464Z" fill="#666666"/>
<defs>
<clipPath id="clip0">
<rect width="32" height="32" fill="white" transform="translate(0 12)"/>
</clipPath>
</defs>
</svg>
