<svg width="19" height="25" viewBox="0 0 19 25" fill="none" xmlns="http://www.w3.org/2000/svg">
<path d="M8.95801 2.5H8.92861C5.37183 2.5 2.47827 5.46871 2.47827 9.1177C2.47827 11.5096 3.53965 14.6663 5.63292 18.5004C7.18486 21.3428 8.75856 23.5198 8.77432 23.5414C8.81813 23.6018 8.88717 23.6374 8.96033 23.6374C8.96241 23.6374 8.96453 23.6374 8.96661 23.6373C9.04209 23.6352 9.11176 23.5955 9.15363 23.5309C9.16915 23.5068 10.7316 21.0852 12.273 18.1233C14.3535 14.1256 15.4084 11.0956 15.4084 9.1177C15.4083 5.46866 12.5147 2.5 8.95801 2.5ZM11.9354 9.27942C11.9354 10.9727 10.5932 12.3503 8.94326 12.3503C7.29341 12.3503 5.95116 10.9727 5.95116 9.27942C5.95116 7.58615 7.29341 6.20858 8.94326 6.20858C10.5932 6.20858 11.9354 7.58615 11.9354 9.27942Z" fill="#FE470C"/>
</svg>
