<svg width="268" height="59" viewBox="0 0 268 59" fill="none" xmlns="http://www.w3.org/2000/svg">
<g clip-path="url(#clip0)">
<path d="M26.27 52.39C25.49 55.93 24.27 56.39 21.27 56.39C19.07 56.39 18.51 53.71 17.81 51.91C14.79 42 8.42 23 8 22.5C8.4 26.59 9.1 43.03 9.1 48.5C9.1 53.77 9.18 57.16 5.8 57.16C1.16 57.16 1.24 51.41 1.24 47.72V46.93C1.24 44.1 0.77 22.15 0.69 19.48C0.55 15.65 0 12 0 8.34C0 5 0.63 2.75 4 2.75C7.15 2.75 7.23 3.84999 9.51 8.64999C14.3266 19.156 18.4032 29.9857 21.71 41.06H22.34C24.23 33.75 26.74 26.67 33.82 2.83C34.1685 2.13591 34.7115 1.55829 35.3827 1.16762C36.0539 0.776956 36.8244 0.590146 37.6 0.629995C38.9402 0.591064 40.2414 1.08352 41.22 2C43.89 16.79 46.22 34.73 47.82 52.82V53.21C47.82 56.21 47.82 58.33 44.36 58.33C43.58 58.33 40.82 58.33 40.82 56.33C38.62 44.33 38.39 31.71 36.34 19.99L26.27 52.39Z" fill="#F15A29"/>
<path d="M64.4999 54.59C58.3699 54.59 50.8999 53.49 50.8999 46.25C50.8999 45.78 50.9799 44.52 50.9799 44.44C53.2599 36.44 59.9799 34.14 67.1799 32.49C66.3899 28.49 66.7899 24.86 61.5899 24.86C59.7899 24.86 59.3099 25.56 58.1299 25.56C56.3199 25.56 53.7299 22.97 53.7299 20.92C53.7299 18.09 61.1199 16.99 63.4799 16.99C69.2999 16.99 73.3199 18.64 74.7299 29.99C75.906 38.3049 76.5739 46.6838 76.7299 55.08C76.7299 57.21 76.3299 58.86 73.5799 58.86C70.2799 58.86 69.6499 57.6 69.1799 54.45C67.8099 54.51 66.2399 54.59 64.4999 54.59ZM60.3399 48.14C63.1204 47.9263 65.852 47.289 68.4399 46.25L67.7299 38.7C65.9199 39.09 58.1299 42.24 58.1299 46.09C58.1442 46.412 58.1979 46.7311 58.2899 47.04C58.2899 47.82 59.0799 48.14 60.3399 48.14Z" fill="#F15A29"/>
<path d="M100.93 20.06C103.05 20.06 104.93 20.69 104.93 23.68C104.93 27.22 101.78 27.06 97.8501 27.77C91.1701 29 89.0001 34.14 89.0001 38.94C89.0001 45.7 92.7001 47.75 96.3201 47.75C99.0701 47.75 101.82 45.23 104.02 45.23C104.455 45.2243 104.887 45.3097 105.287 45.4806C105.687 45.6515 106.047 45.9043 106.343 46.2226C106.64 46.5409 106.867 46.9177 107.009 47.3289C107.152 47.74 107.206 48.1764 107.17 48.61C107.17 54.67 98.5201 54.83 95.7701 54.83C87.6601 54.83 81.2101 50.42 81.2101 40.67C81.1801 28.63 88.3401 20.06 100.93 20.06Z" fill="#F15A29"/>
<path d="M118.79 2C119.147 5.92279 119.304 9.86124 119.26 13.8C119.26 19.23 119.1 25.05 118.86 28.8L132.08 16.29C132.466 15.9971 132.935 15.8328 133.42 15.82C133.97 15.82 137.27 17.31 137.27 19.6C137.225 20.2975 136.946 20.9595 136.48 21.48C133.02 25.48 124.92 31.71 124.92 32.65C124.92 32.6712 124.928 32.6916 124.943 32.7066C124.958 32.7216 124.979 32.73 125 32.73C128.38 39.18 136.33 49.56 138.53 55.23C138.53 57.43 135.7 58.23 133.97 58.23C130.66 58.23 127.59 50.91 120.04 37.93L119.41 38.56C119.34 38.72 118.86 44.62 118.79 47.06C118.71 47.69 118.71 49.34 118.71 50.99C118.71 52.64 118.71 54.37 118.79 54.92C118.16 57.44 117.13 58.23 114.79 58.23C112.59 58.23 111.65 56.42 111.65 54.23V3.3C111.65 2.04 112.65 0 114.16 0C115.8 0 117.92 0.31 118.79 2Z" fill="#F15A29"/>
<path d="M180.46 35.08C180.07 43.97 179.46 54.9 178.58 54.9H173.46C172.91 54.9 172.13 53.02 172.13 53.02L173.62 3.92999C173.86 2.43999 174.25 1.41999 175.9 1.41999C176.61 1.41999 180.7 2.03999 180.7 3.29999L180.07 24.38C186.36 18.25 190.45 8.88999 195.72 1.37999C195.96 1.37999 196.83 1.29999 196.98 1.29999C198.71 1.29999 202.17 2.78999 202.17 5.06999C202.17 6.64999 195.02 16.32 190.69 21.75L190 23C190.545 24.5537 191.176 26.076 191.89 27.56C194.89 34.09 198.03 40.62 200.89 47.3C201.44 48.64 202.89 50.61 202.89 52.42C202.89 54.42 199.28 55.56 197.78 55.56H197.62C197.381 55.6066 197.133 55.5694 196.918 55.4546C196.703 55.3399 196.534 55.1546 196.44 54.93L184.24 30.68C184.16 30.68 181.49 33.82 180.46 35.08Z" fill="#F15A29"/>
<path d="M224.44 17.62C231.05 17.62 233.56 25.56 233.56 30.76V31.38C233.56 34.06 233.56 35.63 231.56 37.28C226.13 37.91 219.84 38.28 214.56 38.54L213.93 39.25C213.61 39.57 213.69 42.4 213.69 43.11V43.26C213.69 48.61 215.26 50.03 217.69 50.03C220.12 50.03 223.36 48.3 226.74 48.3C228.86 48.3 229.65 51.3 229.65 53.3C229.65 57 220.6 58.18 218.09 58.18C209.51 58.18 205.34 50.63 205.34 42.76C205.4 31.23 211.15 17.62 224.44 17.62ZM215.79 31.31L225.7 30.68C225.85 30.68 226.01 30.05 226.01 29.18C226.01 27.69 225.46 25.56 223.18 25.49C215.94 25.49 215.79 31.07 215.79 31.31Z" fill="#F15A29"/>
<path d="M254.88 30.91C247.33 30.91 247.17 35.08 247.17 36.97V54.51C247.17 55.93 242.53 56 241.75 56H240.8C238.21 56 238.8 38.39 238.13 31.07C237.58 25.56 237.42 24.07 241.83 24.07C243.16 24.07 244.74 24.31 245.05 26.27C248.75 24.46 250.87 22.81 254.8 22.81C268.1 22.81 267.8 37.81 267.63 47.51V50.42C267.63 53.25 268.25 58.05 265.11 58.05C262.51 58.05 259.76 58.05 259.76 55.53C259.76 55.46 259.84 55.38 259.84 55.3C259.52 47.27 259.76 30.91 254.88 30.91Z" fill="#F15A29"/>
<path d="M141.4 41.93C141.4 34.5 152.4 33.93 152.4 29.03C152.4 27.77 151.83 26.8 150.47 26.8C149.11 26.8 147.92 28.04 147.92 29.86C147.92 33.97 152.92 39.5 157.66 42.66C159.276 43.8176 161.084 44.6809 163 45.21L162 48.64C159.534 48.0007 157.214 46.8903 155.17 45.37C149.57 41.37 144.42 34.79 144.42 29.89C144.397 29.0983 144.538 28.3104 144.832 27.575C145.126 26.8397 145.568 26.1726 146.131 25.6149C146.693 25.0572 147.364 24.6208 148.102 24.3327C148.839 24.0446 149.628 23.9109 150.42 23.94C153.68 23.94 155.69 25.94 155.69 29C155.69 35.23 145.42 36.89 145.42 41.69C145.42 43.9 147.17 45.39 149.53 45.39C151.537 45.2304 153.403 44.294 154.73 42.78C156.791 40.5916 158.261 37.914 159 35H162.85C161.836 38.5562 160.066 41.8514 157.66 44.66C156.595 45.9158 155.268 46.9229 153.771 47.6105C152.275 48.2981 150.646 48.6495 149 48.64C144.25 48.64 141.4 45.68 141.4 41.93Z" fill="#C2B59B"/>
</g>
<defs>
<clipPath id="clip0">
<rect width="267.68" height="58.84" fill="white"/>
</clipPath>
</defs>
</svg>
