<svg width="26" height="26" viewBox="0 0 26 26" fill="none" xmlns="http://www.w3.org/2000/svg">
<path d="M23.4531 18.0633C23.3672 17.9305 23.2275 17.8418 23.0707 17.8206C21.0079 17.5512 19.5541 15.6606 19.8236 13.5978C20.0139 12.1407 21.0342 10.9274 22.437 10.4898C22.7219 10.3985 22.8788 10.0935 22.7875 9.80866C22.7733 9.76433 22.7535 9.72198 22.7284 9.68267C21.7818 7.97431 20.0987 6.79939 18.1687 6.49989C17.1962 6.5463 16.2377 6.75161 15.3315 7.10763C14.6807 7.36956 13.9934 7.52997 13.2938 7.58319C12.5942 7.52997 11.9069 7.36956 11.256 7.10763C10.3498 6.75161 9.39138 6.5463 8.41883 6.49989C6.39628 6.49989 2.46057 9.36743 2.46057 14.6248C2.46057 19.6211 6.10485 25.9997 8.96051 25.9997C10.0501 26.0095 11.1266 25.7615 12.1022 25.276C12.4696 25.0734 12.8757 24.9508 13.2938 24.9163C13.712 24.9508 14.1181 25.0734 14.4855 25.276C15.461 25.7615 16.5375 26.0095 17.6272 25.9997C19.8913 25.9997 22.4469 22.1127 23.5172 18.5107C23.5619 18.3594 23.5386 18.196 23.4531 18.0633Z" fill="black"/>
<path d="M12.7521 6.49994C16.0412 6.49633 18.7068 3.83085 18.7103 0.541678C18.7103 0.242529 18.4679 0 18.1687 0C14.8795 0.00360543 12.214 2.66909 12.2104 5.95826C12.2104 6.25741 12.4529 6.49994 12.7521 6.49994Z" fill="black"/>
</svg>
