<svg width="143" height="143" viewBox="0 0 143 143" fill="none" xmlns="http://www.w3.org/2000/svg">
<path d="M54.499 109.991L13.0687 68.6004C12.4179 67.8405 12.0779 66.863 12.1165 65.8633C12.1551 64.8636 12.5695 63.9153 13.277 63.2078C13.9844 62.5004 14.9327 62.086 15.9324 62.0474C16.9321 62.0087 17.9096 62.3488 18.6695 62.9995L54.4195 98.7495L124.291 28.9576C125.051 28.3068 126.028 27.9668 127.028 28.0054C128.028 28.044 128.976 28.4584 129.683 29.1659C130.391 29.8733 130.805 30.8216 130.844 31.8213C130.883 32.8211 130.542 33.7985 129.892 34.5584L54.499 109.991Z" fill="#0FD948"/>
</svg>
